<?xml version="1.0" encoding="UTF-8" standalone="no"?>
<!-- Created with Inkscape (http://www.inkscape.org/) -->

<svg
   version="1.1"
   id="svg2"
   xml:space="preserve"
   width="897.57465"
   height="416.08801"
   viewBox="0 0 897.57465 416.08801"
   xmlns="http://www.w3.org/2000/svg"
   xmlns:svg="http://www.w3.org/2000/svg"><defs
     id="defs6" /><g
     id="g8"
     transform="matrix(1.3333333,0,0,-1.3333333,0,416.088)"><g
       id="g10"
       transform="translate(114.071,312.066)"><g
         id="g12"><g
           id="g14" /><g
           id="g16"><g
             id="g18"><path
               d="m 70.61992,-67.2867 44.69243,-37.59639"
               style="fill:none;stroke:#bf0040;stroke-width:0.3985;stroke-linecap:butt;stroke-linejoin:miter;stroke-miterlimit:10;stroke-dasharray:none;stroke-opacity:1"
               id="path20" /><g
               id="g22"
               transform="matrix(-0.76521,0.64372,-0.64372,-0.76521,70.61992,-67.2867)"><g
                 id="g24"><path
                   d="M 0,2.3356 5.50233,0 0,-2.3356 Z"
                   style="fill:none;stroke:#bf0040;stroke-width:0.3985;stroke-linecap:butt;stroke-linejoin:miter;stroke-miterlimit:10;stroke-dasharray:none;stroke-opacity:1"
                   id="path26" /></g></g></g><g
             id="g28"><path
               d="M 12.73372,-68.96082 5.99133,-85.04042"
               style="fill:none;stroke:#bf0040;stroke-width:0.3985;stroke-linecap:butt;stroke-linejoin:miter;stroke-miterlimit:10;stroke-dasharray:none;stroke-opacity:1"
               id="path30" /><g
               id="g32"
               transform="matrix(0.38666,0.92216,-0.92216,0.38666,12.7337,-68.96082)"><g
                 id="g34"><path
                   d="M 0,2.3356 5.50233,0 0,-2.3356 Z"
                   style="fill:none;stroke:#bf0040;stroke-width:0.3985;stroke-linecap:butt;stroke-linejoin:miter;stroke-miterlimit:10;stroke-dasharray:none;stroke-opacity:1"
                   id="path36" /></g></g></g><g
             id="g38"><path
               d="m 13.9117,-69.02246 -33.66397,-86.88498"
               style="fill:none;stroke:#bf0040;stroke-width:0.3985;stroke-linecap:butt;stroke-linejoin:miter;stroke-miterlimit:10;stroke-dasharray:none;stroke-opacity:1"
               id="path40" /><g
               id="g42"
               transform="matrix(0.36125,0.93242,-0.93242,0.36125,13.91168,-69.02246)"><g
                 id="g44"><path
                   d="M 0,2.3356 5.50233,0 0,-2.3356 Z"
                   style="fill:none;stroke:#bf0040;stroke-width:0.3985;stroke-linecap:butt;stroke-linejoin:miter;stroke-miterlimit:10;stroke-dasharray:none;stroke-opacity:1"
                   id="path46" /></g></g></g><g
             id="g48"><path
               d="m 114.39325,-153.54549 -90.5589,-87.40239"
               style="fill:none;stroke:#bf0040;stroke-width:0.3985;stroke-linecap:butt;stroke-linejoin:miter;stroke-miterlimit:10;stroke-dasharray:none;stroke-opacity:1"
               id="path50" /><g
               id="g52"
               transform="matrix(0.71953,0.69444,-0.69444,0.71953,114.39323,-153.54549)"><g
                 id="g54"><path
                   d="M 0,2.3356 5.50233,0 0,-2.3356 Z"
                   style="fill:none;stroke:#bf0040;stroke-width:0.3985;stroke-linecap:butt;stroke-linejoin:miter;stroke-miterlimit:10;stroke-dasharray:none;stroke-opacity:1"
                   id="path56" /></g></g></g><g
             id="g58"><path
               d="m 141.73404,-155.38263 v -57.21843"
               style="fill:none;stroke:#bf0040;stroke-width:0.3985;stroke-linecap:butt;stroke-linejoin:miter;stroke-miterlimit:10;stroke-dasharray:none;stroke-opacity:1"
               id="path60" /><g
               id="g62"
               transform="rotate(90,148.55833,-6.824295)"><g
                 id="g64"><path
                   d="M 0,2.3356 5.50233,0 0,-2.3356 Z"
                   style="fill:none;stroke:#bf0040;stroke-width:0.3985;stroke-linecap:butt;stroke-linejoin:miter;stroke-miterlimit:10;stroke-dasharray:none;stroke-opacity:1"
                   id="path66" /></g></g></g><g
             id="g68"><path
               d="m 255.12128,-78.89343 v -91.18743"
               style="fill:none;stroke:#bf0040;stroke-width:0.3985;stroke-linecap:butt;stroke-linejoin:miter;stroke-miterlimit:10;stroke-dasharray:none;stroke-opacity:1"
               id="path70" /><g
               id="g72"
               transform="rotate(90,167.00736,88.113925)"><g
                 id="g74"><path
                   d="M 0,2.3356 5.50233,0 0,-2.3356 Z"
                   style="fill:none;stroke:#bf0040;stroke-width:0.3985;stroke-linecap:butt;stroke-linejoin:miter;stroke-miterlimit:10;stroke-dasharray:none;stroke-opacity:1"
                   id="path76" /></g></g></g><g
             id="g78"><path
               d="m 301.2822,-76.83803 41.80894,-36.54921"
               style="fill:none;stroke:#bf0040;stroke-width:0.3985;stroke-linecap:butt;stroke-linejoin:miter;stroke-miterlimit:10;stroke-dasharray:none;stroke-opacity:1"
               id="path80" /><g
               id="g82"
               transform="matrix(-0.75285,0.65814,-0.65814,-0.75285,301.2822,-76.83803)"><g
                 id="g84"><path
                   d="M 0,2.3356 5.50233,0 0,-2.3356 Z"
                   style="fill:none;stroke:#bf0040;stroke-width:0.3985;stroke-linecap:butt;stroke-linejoin:miter;stroke-miterlimit:10;stroke-dasharray:none;stroke-opacity:1"
                   id="path86" /></g></g></g><g
             id="g88"><path
               d="m 255.12128,-231.5948 v -51.8733"
               style="fill:none;stroke:#bf0040;stroke-width:0.3985;stroke-linecap:butt;stroke-linejoin:miter;stroke-miterlimit:10;stroke-dasharray:none;stroke-opacity:1"
               id="path90" /><g
               id="g92"
               transform="rotate(90,243.35804,11.76324)"><g
                 id="g94"><path
                   d="M 0,2.3356 5.50233,0 0,-2.3356 Z"
                   style="fill:none;stroke:#bf0040;stroke-width:0.3985;stroke-linecap:butt;stroke-linejoin:miter;stroke-miterlimit:10;stroke-dasharray:none;stroke-opacity:1"
                   id="path96" /></g></g></g><g
             id="g98"><path
               d="m 338.28891,-48.83508 66.3853,-9.91976"
               style="fill:none;stroke:#bf0040;stroke-width:0.3985;stroke-linecap:butt;stroke-linejoin:miter;stroke-miterlimit:10;stroke-dasharray:none;stroke-opacity:1"
               id="path100" /><g
               id="g102"
               transform="matrix(-0.98897,0.14777,-0.14777,-0.98897,338.28893,-48.8351)"><g
                 id="g104"><path
                   d="M 0,2.3356 5.50233,0 0,-2.3356 Z"
                   style="fill:none;stroke:#bf0040;stroke-width:0.3985;stroke-linecap:butt;stroke-linejoin:miter;stroke-miterlimit:10;stroke-dasharray:none;stroke-opacity:1"
                   id="path106" /></g></g></g><g
             id="g108"><path
               d="m 368.50851,-163.88678 v -62.8877"
               style="fill:none;stroke:#bf0040;stroke-width:0.3985;stroke-linecap:butt;stroke-linejoin:miter;stroke-miterlimit:10;stroke-dasharray:none;stroke-opacity:1"
               id="path110" /><g
               id="g112"
               transform="rotate(90,266.19764,102.31086)"><g
                 id="g114"><path
                   d="M 0,2.3356 5.50233,0 0,-2.3356 Z"
                   style="fill:none;stroke:#bf0040;stroke-width:0.3985;stroke-linecap:butt;stroke-linejoin:miter;stroke-miterlimit:10;stroke-dasharray:none;stroke-opacity:1"
                   id="path116" /></g></g></g></g><g
           id="g118"><g
             id="g120"><g
               id="g122" /><g
               id="g124"><path
                 d="m -48.67548,-63.21715 h 154.0446 v 63.0179 h -154.0446 z m 154.04459,40.97876 H -48.67548 m 154.04459,-7.03964 H -48.67548"
                 style="fill:#fffccc;fill-opacity:1;fill-rule:nonzero;stroke:#bf0040;stroke-width:0.3985;stroke-linecap:butt;stroke-linejoin:miter;stroke-miterlimit:10;stroke-dasharray:none;stroke-opacity:1"
                 id="path126" /></g><g
               id="g128"
               transform="translate(-45.354,-9.254)"><g
                 id="g130"><g
                   id="g132"
                   transform="translate(-68.717,-302.812)"><text
                     transform="matrix(1,0,0,-1,114.163,302.812)"
                     style="font-variant:normal;font-weight:normal;font-size:7.9701px;font-family:CMMI8;-inkscape-font-specification:CMMI8;writing-mode:lr-tb;fill:#000000;fill-opacity:1;fill-rule:nonzero;stroke:none"
                     id="text136"><tspan
                       x="0 6.5864906"
                       y="0"
                       id="tspan134">&lt;&lt;</tspan></text><text
                     transform="matrix(1,0,0,-1,127.336,302.812)"
                     style="font-variant:normal;font-weight:normal;font-size:7.9701px;font-family:CMR8;-inkscape-font-specification:CMR8;writing-mode:lr-tb;fill:#000000;fill-opacity:1;fill-rule:nonzero;stroke:none"
                     id="text140"><tspan
                       x="0 4.2345142 8.9392643 12.279533 15.572779 18.873198 23.107712 26.871193"
                       y="0"
                       id="tspan138">abstract</tspan></text><text
                     transform="matrix(1,0,0,-1,157.499,302.812)"
                     style="font-variant:normal;font-weight:normal;font-size:7.9701px;font-family:CMMI8;-inkscape-font-specification:CMMI8;writing-mode:lr-tb;fill:#000000;fill-opacity:1;fill-rule:nonzero;stroke:none"
                     id="text144"><tspan
                       x="0 6.5864906"
                       y="0"
                       id="tspan142">&gt;&gt;</tspan></text><text
                     transform="matrix(1,0,0,-1,119.116,293.348)"
                     style="font-variant:normal;font-weight:normal;font-size:7.9701px;font-family:CMBX8;-inkscape-font-specification:CMBX8;writing-mode:lr-tb;fill:#000000;fill-opacity:1;fill-rule:nonzero;stroke:none"
                     id="text148"><tspan
                       x="0 5.8556323 10.327656 15.752106 19.603258 28.840605 33.993275 39.417725 43.889748"
                       y="0"
                       id="tspan146">LensModel</tspan></text><g
                     id="g150"
                     transform="translate(68.717,302.812)" /></g></g><g
                 id="g152"
                 transform="translate(45.354,9.254)" /></g><g
               id="g154"
               transform="translate(-45.354,-25.758)"><g
                 id="g156" /><g
                 id="g158"
                 transform="translate(45.354,25.758)" /></g><g
               id="g160"
               transform="translate(-45.354,-38.775)"><g
                 id="g162"><g
                   id="g164"
                   transform="translate(-68.717,-273.291)"><text
                     transform="matrix(1,0,0,-1,68.717,273.291)"
                     style="font-variant:normal;font-weight:normal;font-size:7.9701px;font-family:CMTI8;-inkscape-font-specification:CMTI8;writing-mode:lr-tb;fill:#000000;fill-opacity:1;fill-rule:nonzero;stroke:none"
                     id="text172"><tspan
                       x="0 3.9356353 7.8712707 10.713408 17.166798 19.790556 23.288631 26.13077 30.503166 34.110435 36.952572 40.449852 44.822247 50.619698 54.992096 58.490173 61.988251 68.307739 75.16362 80.961075 85.333473 87.95723 92.767181 95.609322 99.98172"
                       y="0"
                       id="tspan166">getDistortedPos():Point2d</tspan><tspan
                       x="0 3.4972799 7.8696766 10.055875 13.99151 18.582289 20.768486 25.140882 27.983021 31.918657 38.051647 40.237846 44.610245 48.982639 53.355038 59.371666 63.307301 66.149437 70.521835 74.019913 80.339401 87.195282 91.13092 95.503319 98.127075"
                       y="9.4639997"
                       id="tspan168">calculateAlphaBeta():void</tspan><tspan
                       x="0 4.5907774 8.5248194 12.897216 17.269613 20.11175 24.047386 30.395571 34.767967 38.702007 43.074406 46.243317 50.178951 54.988907 57.831047 63.964039 67.899673 71.397751 74.895828 81.215317 88.071198 92.006836 96.379234 99.002991"
                       y="18.929001"
                       id="tspan170">updateApparentAbs():void</tspan></text><g
                     id="g174"
                     transform="translate(68.717,273.291)" /></g></g><g
                 id="g176"
                 transform="translate(45.354,38.775)" /></g></g><g
             id="g178"><g
               id="g180" /><g
               id="g182"><path
                 d="m 178.09898,-72.68178 h 154.0446 V -0.19925 H 178.09898 Z M 332.1436,-22.23839 H 178.09898 M 332.1436,-29.27803 H 178.09898"
                 style="fill:#fffccc;fill-opacity:1;fill-rule:nonzero;stroke:#bf0040;stroke-width:0.3985;stroke-linecap:butt;stroke-linejoin:miter;stroke-miterlimit:10;stroke-dasharray:none;stroke-opacity:1"
                 id="path184" /></g><g
               id="g186"
               transform="translate(181.417,-9.254)"><g
                 id="g188"><g
                   id="g190"
                   transform="translate(-295.488,-302.812)"><text
                     transform="matrix(1,0,0,-1,340.934,302.812)"
                     style="font-variant:normal;font-weight:normal;font-size:7.9701px;font-family:CMMI8;-inkscape-font-specification:CMMI8;writing-mode:lr-tb;fill:#000000;fill-opacity:1;fill-rule:nonzero;stroke:none"
                     id="text194"><tspan
                       x="0 6.5864906"
                       y="0"
                       id="tspan192">&lt;&lt;</tspan></text><text
                     transform="matrix(1,0,0,-1,354.107,302.812)"
                     style="font-variant:normal;font-weight:normal;font-size:7.9701px;font-family:CMR8;-inkscape-font-specification:CMR8;writing-mode:lr-tb;fill:#000000;fill-opacity:1;fill-rule:nonzero;stroke:none"
                     id="text198"><tspan
                       x="0 4.2345142 8.9392643 12.279533 15.572779 18.873198 23.107712 26.871193"
                       y="0"
                       id="tspan196">abstract</tspan></text><text
                     transform="matrix(1,0,0,-1,384.271,302.812)"
                     style="font-variant:normal;font-weight:normal;font-size:7.9701px;font-family:CMMI8;-inkscape-font-specification:CMMI8;writing-mode:lr-tb;fill:#000000;fill-opacity:1;fill-rule:nonzero;stroke:none"
                     id="text202"><tspan
                       x="0 6.5864906"
                       y="0"
                       id="tspan200">&gt;&gt;</tspan></text><text
                     transform="matrix(1,0,0,-1,359.387,293.348)"
                     style="font-variant:normal;font-weight:normal;font-size:7.9701px;font-family:CMBX8;-inkscape-font-specification:CMBX8;writing-mode:lr-tb;fill:#000000;fill-opacity:1;fill-rule:nonzero;stroke:none"
                     id="text206"><tspan
                       x="0 5.8556323 10.327656 15.752106"
                       y="0"
                       id="tspan204">Lens</tspan></text><g
                     id="g208"
                     transform="translate(295.488,302.812)" /></g></g><g
                 id="g210"
                 transform="translate(-181.417,9.254)" /></g><g
               id="g212"
               transform="translate(181.417,-25.758)"><g
                 id="g214" /><g
                 id="g216"
                 transform="translate(-181.417,25.758)" /></g><g
               id="g218"
               transform="translate(181.417,-38.775)"><g
                 id="g220"><g
                   id="g222"
                   transform="translate(-295.488,-273.291)"><text
                     transform="matrix(1,0,0,-1,295.488,273.291)"
                     style="font-variant:normal;font-weight:normal;font-size:7.9701px;font-family:CMR8;-inkscape-font-specification:CMR8;writing-mode:lr-tb;fill:#000000;fill-opacity:1;fill-rule:nonzero;stroke:none"
                     id="text232"><tspan
                       x="0 3.3402689 7.1037502 10.396996 16.156189 19.496458 21.848434 27.963097 35.717205 39.951721 46.06638"
                       y="0"
                       id="tspan224">setPsi(Mat)</tspan><tspan
                       x="0 2.3519764 6.5864906 10.821005 15.525755 21.284948 24.625217 26.977194 33.091854 36.432125 39.725368 44.430119 46.782097 49.134071 52.474342 55.767586 59.068005 61.419983 66.124733 73.180664 79.295319 85.88739 90.11792 94.352432 96.704414"
                       y="9.4639997"
                       id="tspan226">loadPsi(std::string):void</tspan><tspan
                       x="0 4.2345142 7.9979954 11.291241 17.050434 20.390703 22.74268 26.035925 32.150585 38.734688 46.488796 50.723309"
                       y="18.929001"
                       id="tspan228">getPsi():Mat</tspan><tspan
                       x="0 4.2345142 7.9979954 11.291241 19.045351 23.279865 26.620134 29.960403 37.714512 41.949028 46.653778 49.947021 56.061684 62.645782 70.399895 74.634407"
                       y="28.393"
                       id="tspan230">getMassMap():Mat</tspan></text><g
                     id="g234"
                     transform="translate(295.488,273.291)" /></g></g><g
                 id="g236"
                 transform="translate(-181.417,38.775)" /></g></g><g
             id="g238"><g
               id="g240" /><g
               id="g242"><path
                 d="m 56.2077,-149.17099 h 171.05269 v 44.08864 H 56.2077 Z m 171.05269,22.0495 H 56.2077 m 171.05269,-7.03964 H 56.2077"
                 style="fill:#fffccc;fill-opacity:1;fill-rule:nonzero;stroke:#bf0040;stroke-width:0.3985;stroke-linecap:butt;stroke-linejoin:miter;stroke-miterlimit:10;stroke-dasharray:none;stroke-opacity:1"
                 id="path244" /></g><g
               id="g246"
               transform="translate(59.527,-114.136)"><g
                 id="g248"><g
                   id="g250"
                   transform="translate(-173.598,-197.93)"><text
                     transform="matrix(1,0,0,-1,227.548,197.93)"
                     style="font-variant:normal;font-weight:normal;font-size:7.9701px;font-family:CMMI8;-inkscape-font-specification:CMMI8;writing-mode:lr-tb;fill:#000000;fill-opacity:1;fill-rule:nonzero;stroke:none"
                     id="text254"><tspan
                       x="0 6.5864906"
                       y="0"
                       id="tspan252">&lt;&lt;</tspan></text><text
                     transform="matrix(1,0,0,-1,240.721,197.93)"
                     style="font-variant:normal;font-weight:normal;font-size:7.9701px;font-family:CMR8;-inkscape-font-specification:CMR8;writing-mode:lr-tb;fill:#000000;fill-opacity:1;fill-rule:nonzero;stroke:none"
                     id="text258"><tspan
                       x="0 4.2345142 8.9392643 12.279533 15.572779 18.873198 23.107712 26.871193"
                       y="0"
                       id="tspan256">abstract</tspan></text><text
                     transform="matrix(1,0,0,-1,270.885,197.93)"
                     style="font-variant:normal;font-weight:normal;font-size:7.9701px;font-family:CMMI8;-inkscape-font-specification:CMMI8;writing-mode:lr-tb;fill:#000000;fill-opacity:1;fill-rule:nonzero;stroke:none"
                     id="text262"><tspan
                       x="0 6.5864906"
                       y="0"
                       id="tspan260">&gt;&gt;</tspan></text><text
                     transform="matrix(1,0,0,-1,223.878,188.466)"
                     style="font-variant:normal;font-weight:normal;font-size:7.9701px;font-family:CMBX8;-inkscape-font-specification:CMBX8;writing-mode:lr-tb;fill:#000000;fill-opacity:1;fill-rule:nonzero;stroke:none"
                     id="text266"><tspan
                       x="0 7.2950325 12.176719 17.60117 20.313395 24.785418 28.582373 32.37933 36.851353 46.088696 51.241367 56.665817 61.13784"
                       y="0"
                       id="tspan264">RouletteModel</tspan></text><g
                     id="g268"
                     transform="translate(173.598,197.93)" /></g></g><g
                 id="g270"
                 transform="translate(-59.527,114.136)" /></g><g
               id="g272"
               transform="translate(59.527,-130.64)"><g
                 id="g274" /><g
                 id="g276"
                 transform="translate(-59.527,130.64)" /></g><g
               id="g278"
               transform="translate(59.527,-143.657)"><g
                 id="g280"><g
                   id="g282"
                   transform="translate(-173.598,-168.409)"><text
                     transform="matrix(1,0,0,-1,173.598,168.409)"
                     style="font-variant:normal;font-weight:normal;font-size:7.9701px;font-family:CMTI8;-inkscape-font-specification:CMTI8;writing-mode:lr-tb;fill:#000000;fill-opacity:1;fill-rule:nonzero;stroke:none"
                     id="text286"><tspan
                       x="0 3.9356353 7.8712707 10.713408 17.166798 19.790556 23.288631 26.13077 30.503166 34.110435 36.952572 40.449852 44.822247 50.619698 54.992096 58.490173 61.988251 65.59552 71.040688 73.882828 78.255226 82.190857 85.032997 89.405396 95.724884 102.58874 108.38618 112.75858 115.38234 120.1923 123.03443 127.40683"
                       y="0"
                       id="tspan284">getDistortedPos(r,theta):Point2d</tspan></text><g
                     id="g288"
                     transform="translate(173.598,168.409)" /></g></g><g
                 id="g290"
                 transform="translate(-59.527,143.657)" /></g></g><g
             id="g292"><g
               id="g294" /><g
               id="g296"><path
                 d="M -85.52634,-113.44324 H 85.52635 v 28.20355 H -85.52634 Z M 85.52634,-99.36395 H -85.52634 M 85.52634,-106.4036 H -85.52634"
                 style="fill:#fffccc;fill-opacity:1;fill-rule:nonzero;stroke:#bf0040;stroke-width:0.3985;stroke-linecap:butt;stroke-linejoin:miter;stroke-miterlimit:10;stroke-dasharray:none;stroke-opacity:1"
                 id="path298" /></g><g
               id="g300"
               transform="translate(-82.205,-94.293)"><g
                 id="g302"><g
                   id="g304"
                   transform="translate(-31.866,-217.773)"><text
                     transform="matrix(1,0,0,-1,81.415,217.773)"
                     style="font-variant:normal;font-weight:normal;font-size:7.9701px;font-family:CMBX8;-inkscape-font-specification:CMBX8;writing-mode:lr-tb;fill:#000000;fill-opacity:1;fill-rule:nonzero;stroke:none"
                     id="text308"><tspan
                       x="0 7.2950325 11.770244 16.922913 20.71987 24.755131 29.501326 33.840248 38.312271 47.549618 52.702286 58.126736 62.598759"
                       y="0"
                       id="tspan306">RaytraceModel</tspan></text><g
                     id="g310"
                     transform="translate(31.866,217.773)" /></g></g><g
                 id="g312"
                 transform="translate(82.205,94.293)" /></g><g
               id="g314"
               transform="translate(-82.205,-102.882)"><g
                 id="g316" /><g
                 id="g318"
                 transform="translate(82.205,102.882)" /></g><g
               id="g320"
               transform="translate(-82.205,-109.922)"><g
                 id="g322" /><g
                 id="g324"
                 transform="translate(82.205,109.922)" /></g></g><g
             id="g326"><g
               id="g328" /><g
               id="g330"><path
                 d="M -113.87315,-200.19533 H 57.17954 v 44.08864 h -171.05269 z m 171.05268,31.51413 h -171.05268 m 171.05268,-7.03964 h -171.05268"
                 style="fill:#fffccc;fill-opacity:1;fill-rule:nonzero;stroke:#bf0040;stroke-width:0.3985;stroke-linecap:butt;stroke-linejoin:miter;stroke-miterlimit:10;stroke-dasharray:none;stroke-opacity:1"
                 id="path332" /></g><g
               id="g334"
               transform="translate(-110.551,-165.159)"><g
                 id="g336"><g
                   id="g338"
                   transform="translate(-3.52,-146.907)"><text
                     transform="matrix(1,0,0,-1,53.614,146.907)"
                     style="font-variant:normal;font-weight:normal;font-size:7.9701px;font-family:CMBX8;-inkscape-font-specification:CMBX8;writing-mode:lr-tb;fill:#000000;fill-opacity:1;fill-rule:nonzero;stroke:none"
                     id="text342"><tspan
                       x="0 6.387238 11.268925 13.98115 19.134617 22.931572 32.168919 36.915112 40.766266 44.617416 50.473049 54.945072 60.369522"
                       y="0"
                       id="tspan340">PointMassLens</tspan></text><g
                     id="g344"
                     transform="translate(3.52,146.907)" /></g></g><g
                 id="g346"
                 transform="translate(110.551,165.159)" /></g><g
               id="g348"
               transform="translate(-110.551,-172.199)"><g
                 id="g350" /><g
                 id="g352"
                 transform="translate(110.551,172.199)" /></g><g
               id="g354"
               transform="translate(-110.551,-185.216)"><g
                 id="g356"><g
                   id="g358"
                   transform="translate(-3.52,-126.85)"><text
                     transform="matrix(1,0,0,-1,3.52,126.85)"
                     style="font-variant:normal;font-weight:normal;font-size:7.9701px;font-family:CMTI8;-inkscape-font-specification:CMTI8;writing-mode:lr-tb;fill:#000000;fill-opacity:1;fill-rule:nonzero;stroke:none"
                     id="text364"><tspan
                       x="0 3.9356353 7.8712707 10.713408 17.166798 19.790556 23.288631 26.13077 30.503166 34.110435 36.952572 40.449852 44.822247 50.619698 54.992096 58.490173 61.988251 65.59552 71.040688 73.882828 78.255226 82.190857 85.032997 89.405396 95.724884 102.58076 108.37822 112.75061 115.37437 120.18433 123.02647 127.39886"
                       y="0"
                       id="tspan360">getDistortedPos(r,theta):Point2d</tspan><tspan
                       x="0 4.5907774 8.5248194 12.897216 17.269613 20.11175 24.047386 30.395571 34.767967 38.702007 43.074406 46.243317 50.178951 54.988907 57.831047 63.964039 67.899673 71.397751 74.895828 81.215317 88.071198 92.006836 96.379234 99.002991"
                       y="9.4639997"
                       id="tspan362">updateApparentAbs():void</tspan></text><g
                     id="g366"
                     transform="translate(3.52,126.85)" /></g></g><g
                 id="g368"
                 transform="translate(110.551,185.216)" /></g></g><g
             id="g370"><g
               id="g372" /><g
               id="g374"><path
                 d="M -77.0223,-286.78552 H 77.0223 v 45.6384 H -77.0223 Z m 154.04461,31.51411 H -77.0223 m 154.04461,-7.03963 H -77.0223"
                 style="fill:#fffccc;fill-opacity:1;fill-rule:nonzero;stroke:#bf0040;stroke-width:0.3985;stroke-linecap:butt;stroke-linejoin:miter;stroke-miterlimit:10;stroke-dasharray:none;stroke-opacity:1"
                 id="path376" /></g><g
               id="g378"
               transform="translate(-73.701,-250.199)"><g
                 id="g380"><g
                   id="g382"
                   transform="translate(-40.37,-61.867)"><text
                     transform="matrix(1,0,0,-1,89.643,61.867)"
                     style="font-variant:normal;font-weight:normal;font-size:7.9701px;font-family:CMBX8;-inkscape-font-specification:CMBX8;writing-mode:lr-tb;fill:#000000;fill-opacity:1;fill-rule:nonzero;stroke:none"
                     id="text386"><tspan
                       x="0 5.4244499 10.8489 16.27335 20.745373 24.780636 29.252659 35.108292 39.580315 45.004765"
                       y="0"
                       id="tspan384">SphereLens</tspan></text><g
                     id="g388"
                     transform="translate(40.37,61.867)" /></g></g><g
                 id="g390"
                 transform="translate(73.701,250.199)" /></g><g
               id="g392"
               transform="translate(-73.701,-258.788)"><g
                 id="g394" /><g
                 id="g396"
                 transform="translate(73.701,258.788)" /></g><g
               id="g398"
               transform="translate(-73.701,-271.805)"><g
                 id="g400"><g
                   id="g402"
                   transform="translate(-40.37,-40.261)"><text
                     transform="matrix(1,0,0,-1,40.37,40.261)"
                     style="font-variant:normal;font-weight:normal;font-size:7.9701px;font-family:CMTI8;-inkscape-font-specification:CMTI8;writing-mode:lr-tb;fill:#000000;fill-opacity:1;fill-rule:nonzero;stroke:none"
                     id="text408"><tspan
                       x="0 3.4972799 7.8696766 10.055875 13.99151 18.582289 20.768486 25.140882 27.983021 31.918657 38.051647 40.237846 44.610245 48.982639 53.355038 59.371666 63.307301 66.149437 70.521835 74.019913 80.339401 87.195282 91.13092 95.503319 98.127075"
                       y="0"
                       id="tspan404">calculateAlphaBeta():void</tspan><tspan
                       x="0 4.5907774 8.5248194 12.897216 17.269613 20.11175 24.047386 30.395571 34.767967 38.702007 43.074406 46.251286 50.178951 54.988907 57.831047 63.964039 67.899673 71.397751 74.895828 81.215317 88.071198 92.006836 96.379234 99.002991"
                       y="9.4650002"
                       id="tspan406">updateApparentAbs():void</tspan></text><g
                     id="g410"
                     transform="translate(40.37,40.261)" /></g></g><g
                 id="g412"
                 transform="translate(73.701,271.805)" /></g></g><g
             id="g414"><g
               id="g416" /><g
               id="g418"><path
                 d="m 64.71175,-239.4541 h 154.0446 v 26.6538 H 64.71175 Z m 154.0446,14.07927 H 64.71175 m 154.0446,-7.03963 H 64.71175"
                 style="fill:#fffccc;fill-opacity:1;fill-rule:nonzero;stroke:#bf0040;stroke-width:0.3985;stroke-linecap:butt;stroke-linejoin:miter;stroke-miterlimit:10;stroke-dasharray:none;stroke-opacity:1"
                 id="path420" /></g><g
               id="g422"
               transform="translate(68.031,-221.852)"><g
                 id="g424"><g
                   id="g426"
                   transform="translate(-182.102,-90.214)"><text
                     transform="matrix(1,0,0,-1,219.628,90.214)"
                     style="font-variant:normal;font-weight:normal;font-size:7.9701px;font-family:CMBX8;-inkscape-font-specification:CMBX8;writing-mode:lr-tb;fill:#000000;fill-opacity:1;fill-rule:nonzero;stroke:none"
                     id="text430"><tspan
                       x="0 7.2950325 12.176719 17.60117 20.313395 24.785418 28.582373 32.37933 36.851353 43.509571 52.746918 58.602551 63.074574 68.499023"
                       y="0"
                       id="tspan428">RoulettePMLens</tspan></text><g
                     id="g432"
                     transform="translate(182.102,90.214)" /></g></g><g
                 id="g434"
                 transform="translate(-68.031,221.852)" /></g><g
               id="g436"
               transform="translate(68.031,-228.892)"><g
                 id="g438" /><g
                 id="g440"
                 transform="translate(-68.031,228.892)" /></g><g
               id="g442"
               transform="translate(68.031,-235.931)"><g
                 id="g444" /><g
                 id="g446"
                 transform="translate(-68.031,235.931)" /></g></g><g
             id="g448"><g
               id="g450" /><g
               id="g452"><path
                 d="m 178.09898,-225.38313 h 154.0446 v 55.10303 h -154.0446 z m 154.04462,40.97874 H 178.09898 m 154.04462,-7.03964 H 178.09898"
                 style="fill:#fffccc;fill-opacity:1;fill-rule:nonzero;stroke:#bf0040;stroke-width:0.3985;stroke-linecap:butt;stroke-linejoin:miter;stroke-miterlimit:10;stroke-dasharray:none;stroke-opacity:1"
                 id="path454" /></g><g
               id="g456"
               transform="translate(181.417,-179.332)"><g
                 id="g458"><g
                   id="g460"
                   transform="translate(-295.488,-132.734)"><text
                     transform="matrix(1,0,0,-1,341.218,132.734)"
                     style="font-variant:normal;font-weight:normal;font-size:7.9701px;font-family:CMBX8;-inkscape-font-specification:CMBX8;writing-mode:lr-tb;fill:#000000;fill-opacity:1;fill-rule:nonzero;stroke:none"
                     id="text464"><tspan
                       x="0 5.4244499 10.170645 18.306522 23.730972 26.443197 30.91522 36.339672 42.195305 46.667328 52.091778"
                       y="0"
                       id="tspan462">SampledLens</tspan></text><g
                     id="g466"
                     transform="translate(295.488,132.734)" /></g></g><g
                 id="g468"
                 transform="translate(-181.417,179.332)" /></g><g
               id="g470"
               transform="translate(181.417,-187.922)"><g
                 id="g472" /><g
                 id="g474"
                 transform="translate(-181.417,187.922)" /></g><g
               id="g476"
               transform="translate(181.417,-200.939)"><g
                 id="g478"><g
                   id="g480"
                   transform="translate(-295.488,-111.127)"><text
                     transform="matrix(1,0,0,-1,295.488,111.127)"
                     style="font-variant:normal;font-weight:normal;font-size:7.9701px;font-family:CMTI8;-inkscape-font-specification:CMTI8;writing-mode:lr-tb;fill:#000000;fill-opacity:1;fill-rule:nonzero;stroke:none"
                     id="text488"><tspan
                       x="0 3.4972799 7.8696766 10.055875 13.99151 18.582289 20.768486 25.140882 27.983021 31.918657 38.051647 40.237846 44.610245 48.982639 53.355038 59.371666 63.307301 66.149437 70.521835 74.019913 80.339401 87.195282 91.13092 95.503319 98.127075"
                       y="0"
                       id="tspan482">calculateAlphaBeta():void</tspan><tspan
                       x="0 4.5907774 8.5248194 12.897216 17.269613 20.11175 24.047386 30.395571 34.767967 38.702007 43.074406 46.251286 50.178951 54.988907 57.831047 63.964039 67.899673 71.397751 74.895828 81.215317 88.071198 92.006836 96.379234 99.002991"
                       y="9.4639997"
                       id="tspan484">updateApparentAbs():void</tspan><tspan
                       x="0 4.5907774 8.5248194 12.897216 17.269613 20.11175 24.047386 29.844837 33.342915 35.966671 39.464748 45.784241 52.64809 56.575756 60.948151 63.571907"
                       y="18.929001"
                       id="tspan486">updatePsi():void</tspan></text><g
                     id="g490"
                     transform="translate(295.488,111.127)" /></g></g><g
                 id="g492"
                 transform="translate(-181.417,200.939)" /></g></g><g
             id="g494"><g
               id="g496" /><g
               id="g498"><path
                 d="m 291.48622,-157.67513 h 154.0446 v 44.08864 H 291.48622 Z M 445.53084,-126.161 H 291.48622 m 154.04462,-7.03964 H 291.48622"
                 style="fill:#fffccc;fill-opacity:1;fill-rule:nonzero;stroke:#bf0040;stroke-width:0.3985;stroke-linecap:butt;stroke-linejoin:miter;stroke-miterlimit:10;stroke-dasharray:none;stroke-opacity:1"
                 id="path500" /></g><g
               id="g502"
               transform="translate(294.803,-122.64)"><g
                 id="g504"><g
                   id="g506"
                   transform="translate(-408.874,-189.426)"><text
                     transform="matrix(1,0,0,-1,447.504,189.426)"
                     style="font-variant:normal;font-weight:normal;font-size:7.9701px;font-family:CMBX8;-inkscape-font-specification:CMBX8;writing-mode:lr-tb;fill:#000000;fill-opacity:1;fill-rule:nonzero;stroke:none"
                     id="text510"><tspan
                       x="0 6.6582217 10.509374 13.221599 18.536062 23.960512 29.384962 33.723885 37.52084 40.233067 45.11475 50.5392 56.394833 60.866856 66.291306"
                       y="0"
                       id="tspan508">PsiFunctionLens</tspan></text><g
                     id="g512"
                     transform="translate(408.874,189.426)" /></g></g><g
                 id="g514"
                 transform="translate(-294.803,122.64)" /></g><g
               id="g516"
               transform="translate(294.803,-129.679)"><g
                 id="g518" /><g
                 id="g520"
                 transform="translate(-294.803,129.679)" /></g><g
               id="g522"
               transform="translate(294.803,-142.696)"><g
                 id="g524"><g
                   id="g526"
                   transform="translate(-408.874,-169.37)"><text
                     transform="matrix(1,0,0,-1,408.874,169.37)"
                     style="font-variant:normal;font-weight:normal;font-size:7.9701px;font-family:CMR8;-inkscape-font-specification:CMR8;writing-mode:lr-tb;fill:#000000;fill-opacity:1;fill-rule:nonzero;stroke:none"
                     id="text530"><tspan
                       x="0 4.7047501 8.0450191 10.396996 12.984887 17.689636 22.394386 26.157867 29.451113 31.803089 36.037605 40.742355 44.035599 50.150261 56.73436 60.972858 65.207375 67.559349"
                       y="0"
                       id="tspan528">psifunction():void</tspan></text><text
                     transform="matrix(1,0,0,-1,408.874,159.905)"
                     style="font-variant:normal;font-weight:normal;font-size:7.9701px;font-family:CMTI8;-inkscape-font-specification:CMTI8;writing-mode:lr-tb;fill:#000000;fill-opacity:1;fill-rule:nonzero;stroke:none"
                     id="text534"><tspan
                       x="0 4.5907774 8.5248194 12.897216 17.269613 20.11175 24.047386 29.844837 33.342915 35.966671 39.464748 45.784241 52.640118 56.575756 60.948151 63.571907"
                       y="0"
                       id="tspan532">updatePsi():void</tspan></text><g
                     id="g536"
                     transform="translate(408.874,169.37)" /></g></g><g
                 id="g538"
                 transform="translate(-294.803,142.696)" /></g></g><g
             id="g540"><g
               id="g542" /><g
               id="g544"><path
                 d="m 178.09898,-311.87091 h 154.0446 v 28.20355 h -154.0446 z m 154.04462,14.07928 H 178.09898 m 154.04462,-7.03964 H 178.09898"
                 style="fill:#fffccc;fill-opacity:1;fill-rule:nonzero;stroke:#bf0040;stroke-width:0.3985;stroke-linecap:butt;stroke-linejoin:miter;stroke-miterlimit:10;stroke-dasharray:none;stroke-opacity:1"
                 id="path546" /></g><g
               id="g548"
               transform="translate(181.417,-292.718)"><g
                 id="g550"><g
                   id="g552"
                   transform="translate(-295.488,-19.348)"><text
                     transform="matrix(1,0,0,-1,315.949,19.348)"
                     style="font-variant:normal;font-weight:normal;font-size:7.9701px;font-family:CMBX8;-inkscape-font-specification:CMBX8;writing-mode:lr-tb;fill:#000000;fill-opacity:1;fill-rule:nonzero;stroke:none"
                     id="text556"><tspan
                       x="0 5.4244499 10.170645 18.306522 23.730972 26.443197 30.91522 36.339672 42.997894 46.849045 49.561272 54.875732 60.300182 65.724632 70.063553 73.860512 76.572739 81.454422 86.878876 92.734505 97.206528 102.63098"
                       y="0"
                       id="tspan554">SampledPsiFunctionLens</tspan></text><g
                     id="g558"
                     transform="translate(295.488,19.348)" /></g></g><g
                 id="g560"
                 transform="translate(-181.417,292.718)" /></g><g
               id="g562"
               transform="translate(181.417,-301.308)"><g
                 id="g564" /><g
                 id="g566"
                 transform="translate(-181.417,301.308)" /></g><g
               id="g568"
               transform="translate(181.417,-308.347)"><g
                 id="g570" /><g
                 id="g572"
                 transform="translate(-181.417,308.347)" /></g></g><g
             id="g574"><path
               d="m 255.12128,-297.76912 v 0.48099"
               style="fill:#fffccc;fill-opacity:1;fill-rule:nonzero;stroke:#bf0040;stroke-width:0.3985;stroke-linecap:butt;stroke-linejoin:miter;stroke-miterlimit:10;stroke-dasharray:none;stroke-opacity:1"
               id="path576" /><g
               id="g578"><g
                 id="g580"
                 transform="rotate(90,276.6857,-21.56442)"><g
                   id="g582"><path
                     d="M -2.19177,-2.39102 0.19925,0 -2.19177,2.39102"
                     style="fill:none;stroke:#bf0040;stroke-width:0.3985;stroke-linecap:round;stroke-linejoin:miter;stroke-miterlimit:10;stroke-dasharray:none;stroke-opacity:1"
                     id="path584" /></g></g></g><g
               id="g586"><g
                 id="g588"
                 transform="translate(255.118,-294.246)"><g
                   id="g590" /><g
                   id="g592"
                   transform="translate(-255.118,294.246)" /></g></g><g
               id="g594"><g
                 id="g596"
                 transform="translate(253.001,-306.421)"><g
                   id="g598"><g
                     id="g600"
                     transform="translate(-367.072,-5.645)"><text
                       transform="matrix(1,0,0,-1,367.072,5.645)"
                       style="font-variant:normal;font-weight:normal;font-size:7.9701px;font-family:CMR8;-inkscape-font-specification:CMR8;writing-mode:lr-tb;fill:#000000;fill-opacity:1;fill-rule:nonzero;stroke:none"
                       id="text604"><tspan
                         x="0"
                         y="0"
                         id="tspan602">1</tspan></text><g
                       id="g606"
                       transform="translate(367.072,5.645)" /></g></g><g
                   id="g608"
                   transform="translate(-253.001,306.421)" /></g></g></g><g
             id="g610"><g
               id="g612" /><g
               id="g614"><path
                 d="m 404.87346,-83.54666 h 154.0446 v 26.6538 h -154.0446 z m 154.04462,14.07928 H 404.87346 m 154.04462,-7.03964 H 404.87346"
                 style="fill:#fffccc;fill-opacity:1;fill-rule:nonzero;stroke:#bf0040;stroke-width:0.3985;stroke-linecap:butt;stroke-linejoin:miter;stroke-miterlimit:10;stroke-dasharray:none;stroke-opacity:1"
                 id="path616" /></g><g
               id="g618"
               transform="translate(408.189,-65.947)"><g
                 id="g620"><g
                   id="g622"
                   transform="translate(-522.26,-246.119)"><text
                     transform="matrix(1,0,0,-1,567.733,246.119)"
                     style="font-variant:normal;font-weight:normal;font-size:7.9701px;font-family:CMBX8;-inkscape-font-specification:CMBX8;writing-mode:lr-tb;fill:#000000;fill-opacity:1;fill-rule:nonzero;stroke:none"
                     id="text626"><tspan
                       x="0 7.2950325 12.176719 17.60117 20.313395 24.785418 28.582373 32.37933 36.851353 42.706985 47.179008 52.603458"
                       y="0"
                       id="tspan624">RouletteLens</tspan></text><g
                     id="g628"
                     transform="translate(522.26,246.119)" /></g></g><g
                 id="g630"
                 transform="translate(-408.189,65.947)" /></g><g
               id="g632"
               transform="translate(408.189,-72.986)"><g
                 id="g634" /><g
                 id="g636"
                 transform="translate(-408.189,72.986)" /></g><g
               id="g638"
               transform="translate(408.189,-80.026)"><g
                 id="g640" /><g
                 id="g642"
                 transform="translate(-408.189,80.026)" /></g></g><g
             id="g644"><g
               id="g646" /><g
               id="g648"><path
                 d="m 291.48622,-253.5611 h 154.0446 v 26.58737 h -154.0446 z m 154.04462,14.07927 H 291.48622 m 154.04462,-7.03962 H 291.48622"
                 style="fill:#fffccc;fill-opacity:1;fill-rule:nonzero;stroke:#bf0040;stroke-width:0.3985;stroke-linecap:butt;stroke-linejoin:miter;stroke-miterlimit:10;stroke-dasharray:none;stroke-opacity:1"
                 id="path650" /></g><g
               id="g652"
               transform="translate(294.803,-235.959)"><g
                 id="g654"><g
                   id="g656"
                   transform="translate(-408.874,-76.107)"><text
                     transform="matrix(1,0,0,-1,475.321,76.107)"
                     style="font-variant:normal;font-weight:normal;font-size:7.9701px;font-family:CMBX8;-inkscape-font-specification:CMBX8;writing-mode:lr-tb;fill:#000000;fill-opacity:1;fill-rule:nonzero;stroke:none"
                     id="text660"><tspan
                       x="0 5.4244499 9.0827255"
                       y="0"
                       id="tspan658">SIS</tspan></text><g
                     id="g662"
                     transform="translate(408.874,76.107)" /></g></g><g
                 id="g664"
                 transform="translate(-294.803,235.959)" /></g><g
               id="g666"
               transform="translate(294.803,-242.999)"><g
                 id="g668" /><g
                 id="g670"
                 transform="translate(-294.803,242.999)" /></g><g
               id="g672"
               transform="translate(294.803,-250.038)"><g
                 id="g674" /><g
                 id="g676"
                 transform="translate(-294.803,250.038)" /></g></g></g></g></g></g></svg>
