<?xml version="1.0" encoding="UTF-8" standalone="no"?>
<!-- Created with Inkscape (http://www.inkscape.org/) -->

<svg
   version="1.1"
   id="svg2"
   xml:space="preserve"
   width="291.99466"
   height="342.88934"
   viewBox="0 0 291.99466 342.88934"
   xmlns="http://www.w3.org/2000/svg"
   xmlns:svg="http://www.w3.org/2000/svg"><defs
     id="defs6" /><g
     id="g8"
     transform="matrix(1.3333333,0,0,-1.3333333,0,342.88933)"><g
       id="g10"
       transform="translate(5.38,5.38)"><g
         id="g12"><g
           id="g14" /><g
           id="g16" /><g
           id="g18"><g
             id="g20" /><g
             id="g22"><g
               id="g24"
               transform="translate(25.694,232.228)"><g
                 id="g26"><g
                   id="g28"
                   transform="translate(-31.074,-237.608)"><text
                     transform="matrix(1,0,0,-1,31.074,237.608)"
                     style="font-variant:normal;font-weight:normal;font-size:9.9626px;font-family:CMMI10;-inkscape-font-specification:CMMI10;writing-mode:lr-tb;fill:#000000;fill-opacity:1;fill-rule:nonzero;stroke:none"
                     id="text32"><tspan
                       x="0"
                       y="0"
                       id="tspan30">η</tspan></text><g
                     id="g34"
                     transform="translate(31.074,237.608)" /></g></g><g
                 id="g36"
                 transform="translate(-25.694,-232.228)" /></g></g><g
             id="g38" /><g
             id="g40"><g
               id="g42"
               transform="translate(60.212,238.168)"><g
                 id="g44"><g
                   id="g46"
                   transform="translate(-65.592,-243.548)"><text
                     transform="matrix(1,0,0,-1,65.592,243.548)"
                     style="font-variant:normal;font-weight:normal;font-size:9.9626px;font-family:CMMI10;-inkscape-font-specification:CMMI10;writing-mode:lr-tb;fill:#000000;fill-opacity:1;fill-rule:nonzero;stroke:none"
                     id="text50"><tspan
                       x="0"
                       y="0"
                       id="tspan48">η</tspan></text><text
                     transform="matrix(1,0,0,-1,70.897,247.164)"
                     style="font-variant:normal;font-weight:normal;font-size:6.9738px;font-family:CMSY7;-inkscape-font-specification:CMSY7;writing-mode:lr-tb;fill:#000000;fill-opacity:1;fill-rule:nonzero;stroke:none"
                     id="text54"><tspan
                       x="0"
                       y="0"
                       id="tspan52">′</tspan></text><g
                     id="g56"
                     transform="translate(65.592,243.548)" /></g></g><g
                 id="g58"
                 transform="translate(-60.212,-238.168)" /></g></g><g
             id="g60" /><g
             id="g62"><g
               id="g64"
               transform="translate(167.301,230.291)"><g
                 id="g66"><g
                   id="g68"
                   transform="translate(-172.681,-235.671)"><text
                     transform="matrix(1,0,0,-1,172.681,235.671)"
                     style="font-variant:normal;font-weight:normal;font-size:9.9626px;font-family:CMMI10;-inkscape-font-specification:CMMI10;writing-mode:lr-tb;fill:#000000;fill-opacity:1;fill-rule:nonzero;stroke:none"
                     id="text72"><tspan
                       x="0"
                       y="0"
                       id="tspan70">ν</tspan></text><g
                     id="g74"
                     transform="translate(172.681,235.671)" /></g></g><g
                 id="g76"
                 transform="translate(-167.301,-230.291)" /></g></g><g
             id="g78" /><g
             id="g80"><g
               id="g82"
               transform="translate(201.945,237.2)"><g
                 id="g84"><g
                   id="g86"
                   transform="translate(-207.325,-242.58)"><text
                     transform="matrix(1,0,0,-1,207.325,242.58)"
                     style="font-variant:normal;font-weight:normal;font-size:9.9626px;font-family:CMMI10;-inkscape-font-specification:CMMI10;writing-mode:lr-tb;fill:#000000;fill-opacity:1;fill-rule:nonzero;stroke:none"
                     id="text90"><tspan
                       x="0"
                       y="0"
                       id="tspan88">ν</tspan></text><text
                     transform="matrix(1,0,0,-1,212.88,246.195)"
                     style="font-variant:normal;font-weight:normal;font-size:6.9738px;font-family:CMSY7;-inkscape-font-specification:CMSY7;writing-mode:lr-tb;fill:#000000;fill-opacity:1;fill-rule:nonzero;stroke:none"
                     id="text94"><tspan
                       x="0"
                       y="0"
                       id="tspan92">′</tspan></text><g
                     id="g96"
                     transform="translate(207.325,242.58)" /></g></g><g
                 id="g98"
                 transform="translate(-201.945,-237.2)" /></g></g><g
             id="g100" /><g
             id="g102"><g
               id="g104"
               transform="translate(55.443,82.549)"><g
                 id="g106"><g
                   id="g108"
                   transform="translate(-60.823,-87.929)"><text
                     transform="matrix(1,0,0,-1,60.823,87.929)"
                     style="font-variant:normal;font-weight:normal;font-size:9.9626px;font-family:CMMI10;-inkscape-font-specification:CMMI10;writing-mode:lr-tb;fill:#000000;fill-opacity:1;fill-rule:nonzero;stroke:none"
                     id="text112"><tspan
                       x="0"
                       y="0"
                       id="tspan110">ξ</tspan></text><g
                     id="g114"
                     transform="translate(60.823,87.929)" /></g></g><g
                 id="g116"
                 transform="translate(-55.443,-82.549)" /></g></g><g
             id="g118" /><g
             id="g120"><g
               id="g122"
               transform="translate(77.929,87.578)"><g
                 id="g124"><g
                   id="g126"
                   transform="translate(-83.309,-92.958)"><text
                     transform="matrix(1,0,0,-1,83.309,92.958)"
                     style="font-variant:normal;font-weight:normal;font-size:9.9626px;font-family:CMMI10;-inkscape-font-specification:CMMI10;writing-mode:lr-tb;fill:#000000;fill-opacity:1;fill-rule:nonzero;stroke:none"
                     id="text130"><tspan
                       x="0"
                       y="0"
                       id="tspan128">ξ</tspan></text><text
                     transform="matrix(1,0,0,-1,88.126,96.573)"
                     style="font-variant:normal;font-weight:normal;font-size:6.9738px;font-family:CMSY7;-inkscape-font-specification:CMSY7;writing-mode:lr-tb;fill:#000000;fill-opacity:1;fill-rule:nonzero;stroke:none"
                     id="text134"><tspan
                       x="0"
                       y="0"
                       id="tspan132">′</tspan></text><g
                     id="g136"
                     transform="translate(83.309,92.958)" /></g></g><g
                 id="g138"
                 transform="translate(-77.929,-87.578)" /></g></g><g
             id="g140" /><g
             id="g142"><path
               d="m 28.3468,226.77448 c 0,0.83532 0.55693,1.67068 1.67075,2.22756 l 9.71322,4.85645 c 1.11382,0.55688 1.67075,1.39223 1.67073,2.22758 0.66826,-0.50125 1.6707,-0.55693 2.78452,-4e-5 l 9.71323,4.85646 c 1.11381,0.55688 2.11625,0.50119 2.7845,-3e-5"
               style="fill:none;stroke:#000000;stroke-width:0.79701;stroke-linecap:butt;stroke-linejoin:miter;stroke-miterlimit:10;stroke-dasharray:none;stroke-opacity:1"
               id="path144" /><g
               id="g146"><g
                 id="g148"
                 transform="translate(35.716,241.659)"><g
                   id="g150"><g
                     id="g152"
                     transform="translate(-41.096,-247.039)"><text
                       transform="matrix(1,0,0,-1,41.096,247.039)"
                       style="font-variant:normal;font-weight:normal;font-size:9.9626px;font-family:CMR10;-inkscape-font-specification:CMR10;writing-mode:lr-tb;fill:#000000;fill-opacity:1;fill-rule:nonzero;stroke:none"
                       id="text156"><tspan
                         x="0"
                         y="0"
                         id="tspan154">∆</tspan></text><text
                       transform="matrix(1,0,0,-1,49.398,247.039)"
                       style="font-variant:normal;font-weight:normal;font-size:9.9626px;font-family:CMMI10;-inkscape-font-specification:CMMI10;writing-mode:lr-tb;fill:#000000;fill-opacity:1;fill-rule:nonzero;stroke:none"
                       id="text160"><tspan
                         x="0"
                         y="0"
                         id="tspan158">η</tspan></text><g
                       id="g162"
                       transform="translate(41.096,247.039)" /></g></g><g
                   id="g164"
                   transform="translate(-35.716,-241.659)" /></g></g></g><g
             id="g166"><path
               d="m 74.41037,90.35544 c 2e-5,-0.83531 -0.55692,-1.67066 -1.6707,-2.22756 l -0.85945,-0.4297 c -1.11379,-0.55688 -1.67072,-1.39221 -1.67069,-2.22755 -0.66824,0.50123 -1.67067,0.5569 -2.78447,1e-5 l -0.85945,-0.42972 c -1.11378,-0.5569 -2.11622,-0.50119 -2.78445,2e-5"
               style="fill:none;stroke:#000000;stroke-width:0.79701;stroke-linecap:butt;stroke-linejoin:miter;stroke-miterlimit:10;stroke-dasharray:none;stroke-opacity:1"
               id="path168" /><g
               id="g170"><g
                 id="g172"
                 transform="translate(65.192,77.524)"><g
                   id="g174"><g
                     id="g176"
                     transform="translate(-70.572,-82.904)"><text
                       transform="matrix(1,0,0,-1,70.572,82.904)"
                       style="font-variant:normal;font-weight:normal;font-size:9.9626px;font-family:CMR10;-inkscape-font-specification:CMR10;writing-mode:lr-tb;fill:#000000;fill-opacity:1;fill-rule:nonzero;stroke:none"
                       id="text180"><tspan
                         x="0"
                         y="0"
                         id="tspan178">∆</tspan></text><text
                       transform="matrix(1,0,0,-1,78.874,82.904)"
                       style="font-variant:normal;font-weight:normal;font-size:9.9626px;font-family:CMMI10;-inkscape-font-specification:CMMI10;writing-mode:lr-tb;fill:#000000;fill-opacity:1;fill-rule:nonzero;stroke:none"
                       id="text184"><tspan
                         x="0"
                         y="0"
                         id="tspan182">ξ</tspan></text><g
                       id="g186"
                       transform="translate(70.572,82.904)" /></g></g><g
                   id="g188"
                   transform="translate(-65.192,-77.524)" /></g></g></g><g
             id="g190"><path
               d="m 170.08086,226.77448 c 0,0.83532 0.55691,1.67068 1.67073,2.22756 l 9.71324,4.85645 c 1.11381,0.55688 1.67073,1.39223 1.67071,2.22758 0.66828,-0.50125 1.6707,-0.55693 2.78452,-4e-5 l 9.71324,4.85646 c 1.11382,0.55688 2.11624,0.50119 2.7845,-3e-5"
               style="fill:none;stroke:#000000;stroke-width:0.79701;stroke-linecap:butt;stroke-linejoin:miter;stroke-miterlimit:10;stroke-dasharray:none;stroke-opacity:1"
               id="path192" /><g
               id="g194"><g
                 id="g196"
                 transform="translate(177.323,239.722)"><g
                   id="g198"><g
                     id="g200"
                     transform="translate(-182.703,-245.102)"><text
                       transform="matrix(1,0,0,-1,182.703,245.102)"
                       style="font-variant:normal;font-weight:normal;font-size:9.9626px;font-family:CMR10;-inkscape-font-specification:CMR10;writing-mode:lr-tb;fill:#000000;fill-opacity:1;fill-rule:nonzero;stroke:none"
                       id="text204"><tspan
                         x="0"
                         y="0"
                         id="tspan202">∆</tspan></text><text
                       transform="matrix(1,0,0,-1,191.005,245.102)"
                       style="font-variant:normal;font-weight:normal;font-size:9.9626px;font-family:CMMI10;-inkscape-font-specification:CMMI10;writing-mode:lr-tb;fill:#000000;fill-opacity:1;fill-rule:nonzero;stroke:none"
                       id="text208"><tspan
                         x="0"
                         y="0"
                         id="tspan206">ν</tspan></text><g
                       id="g210"
                       transform="translate(182.703,245.102)" /></g></g><g
                   id="g212"
                   transform="translate(-177.323,-239.722)" /></g></g></g><g
             id="g214"><path
               d="M 0,0 63.7803,85.04042"
               style="fill:none;stroke:#0000ff;stroke-width:0.3985;stroke-linecap:butt;stroke-linejoin:miter;stroke-miterlimit:10;stroke-dasharray:none;stroke-opacity:1"
               id="path216" /></g><g
             id="g218"><path
               d="M 63.7803,85.04042 28.3468,226.77448"
               style="fill:none;stroke:#0000ff;stroke-width:0.3985;stroke-linecap:butt;stroke-linejoin:miter;stroke-miterlimit:10;stroke-dasharray:none;stroke-opacity:1"
               id="path220" /></g><g
             id="g222"><path
               d="M 63.7803,85.04042 170.08086,226.77448"
               style="fill:none;stroke:#0000ff;stroke-width:0.3985;stroke-linecap:butt;stroke-linejoin:miter;stroke-miterlimit:10;stroke-dasharray:2.98883, 2.98883;stroke-dashoffset:0;stroke-opacity:1"
               id="path224" /></g><g
             id="g226"><path
               d="M 0,0 198.42766,240.94788"
               style="fill:none;stroke:#bf8040;stroke-width:0.3985;stroke-linecap:butt;stroke-linejoin:miter;stroke-miterlimit:10;stroke-dasharray:2.98883, 2.98883;stroke-dashoffset:0;stroke-opacity:1"
               id="path228" /></g><g
             id="g230"><path
               d="M 0,0 74.41037,90.35544"
               style="fill:none;stroke:#bf8040;stroke-width:0.3985;stroke-linecap:butt;stroke-linejoin:miter;stroke-miterlimit:10;stroke-dasharray:none;stroke-opacity:1"
               id="path232" /></g><g
             id="g234"><path
               d="M 74.41037,90.35544 56.69362,240.94788"
               style="fill:none;stroke:#bf8040;stroke-width:0.3985;stroke-linecap:butt;stroke-linejoin:miter;stroke-miterlimit:10;stroke-dasharray:none;stroke-opacity:1"
               id="path236" /></g><g
             id="g238"><path
               d="M 4.98138,0 C 4.98138,2.75117 2.75117,4.98138 0,4.98138 -2.75117,4.98138 -4.98138,2.75117 -4.98138,0 c 0,-2.75117 2.23021,-4.98138 4.98138,-4.98138 2.75117,0 4.98138,2.23021 4.98138,4.98138 z"
               style="fill:#ffffff;fill-opacity:1;fill-rule:nonzero;stroke:#00ff00;stroke-width:0.79701;stroke-linecap:butt;stroke-linejoin:miter;stroke-miterlimit:10;stroke-dasharray:none;stroke-opacity:1"
               id="path240" /></g><g
             id="g242"><path
               d="m 29.34308,226.77448 c 0,0.55022 -0.44605,0.99627 -0.99628,0.99627 -0.55023,0 -0.99628,-0.44605 -0.99628,-0.99627 0,-0.55024 0.44605,-0.99628 0.99628,-0.99628 0.55023,0 0.99628,0.44604 0.99628,0.99628 z"
               style="fill:#000000;fill-opacity:1;fill-rule:nonzero;stroke:#000000;stroke-width:0.79701;stroke-linecap:butt;stroke-linejoin:miter;stroke-miterlimit:10;stroke-dasharray:none;stroke-opacity:1"
               id="path244" /></g><g
             id="g246"><path
               d="m 171.07713,226.77448 c 0,0.55022 -0.44604,0.99627 -0.99627,0.99627 -0.55025,0 -0.99628,-0.44605 -0.99628,-0.99627 0,-0.55024 0.44603,-0.99628 0.99628,-0.99628 0.55023,0 0.99627,0.44604 0.99627,0.99628 z"
               style="fill:#000000;fill-opacity:1;fill-rule:nonzero;stroke:#000000;stroke-width:0.79701;stroke-linecap:butt;stroke-linejoin:miter;stroke-miterlimit:10;stroke-dasharray:none;stroke-opacity:1"
               id="path248" /></g><g
             id="g250"><path
               d="m 64.77658,85.04042 c 0,0.55023 -0.44604,0.99628 -0.99628,0.99628 -0.55023,0 -0.99627,-0.44605 -0.99627,-0.99628 0,-0.55023 0.44604,-0.99628 0.99627,-0.99628 0.55024,0 0.99628,0.44605 0.99628,0.99628 z"
               style="fill:#000000;fill-opacity:1;fill-rule:nonzero;stroke:#000000;stroke-width:0.79701;stroke-linecap:butt;stroke-linejoin:miter;stroke-miterlimit:10;stroke-dasharray:none;stroke-opacity:1"
               id="path252" /></g><g
             id="g254"><path
               d="m 199.42393,240.94788 c 0,0.55023 -0.44604,0.99627 -0.99627,0.99627 -0.55023,0 -0.99628,-0.44604 -0.99628,-0.99627 0,-0.55025 0.44605,-0.99628 0.99628,-0.99628 0.55023,0 0.99627,0.44603 0.99627,0.99628 z"
               style="fill:#000000;fill-opacity:1;fill-rule:nonzero;stroke:#000000;stroke-width:0.79701;stroke-linecap:butt;stroke-linejoin:miter;stroke-miterlimit:10;stroke-dasharray:none;stroke-opacity:1"
               id="path256" /></g><g
             id="g258"><path
               d="m 57.6899,240.94788 c 0,0.55023 -0.44605,0.99627 -0.99628,0.99627 -0.55025,0 -0.99628,-0.44604 -0.99628,-0.99627 0,-0.55025 0.44603,-0.99628 0.99628,-0.99628 0.55023,0 0.99628,0.44603 0.99628,0.99628 z"
               style="fill:#000000;fill-opacity:1;fill-rule:nonzero;stroke:#000000;stroke-width:0.79701;stroke-linecap:butt;stroke-linejoin:miter;stroke-miterlimit:10;stroke-dasharray:none;stroke-opacity:1"
               id="path260" /></g><g
             id="g262"><path
               d="m 75.40665,90.35544 c 0,0.55025 -0.44605,0.99628 -0.99628,0.99628 -0.55025,0 -0.99627,-0.44603 -0.99627,-0.99628 0,-0.55024 0.44602,-0.99628 0.99627,-0.99628 0.55023,0 0.99628,0.44604 0.99628,0.99628 z"
               style="fill:#000000;fill-opacity:1;fill-rule:nonzero;stroke:#000000;stroke-width:0.79701;stroke-linecap:butt;stroke-linejoin:miter;stroke-miterlimit:10;stroke-dasharray:none;stroke-opacity:1"
               id="path264" /></g></g></g></g></g></svg>
