<?xml version="1.0" encoding="UTF-8" standalone="no"?>
<svg
   xmlns:dc="http://purl.org/dc/elements/1.1/"
   xmlns:cc="http://creativecommons.org/ns#"
   xmlns:rdf="http://www.w3.org/1999/02/22-rdf-syntax-ns#"
   xmlns:svg="http://www.w3.org/2000/svg"
   xmlns="http://www.w3.org/2000/svg"
   version="1.1"
   id="svg2"
   xml:space="preserve"
   width="291.99466"
   height="342.88934"
   viewBox="0 0 291.99466 342.88934"><metadata
     id="metadata8"><rdf:RDF><cc:Work
         rdf:about=""><dc:format>image/svg+xml</dc:format><dc:type
           rdf:resource="http://purl.org/dc/dcmitype/StillImage" /></cc:Work></rdf:RDF></metadata><defs
     id="defs6" /><g
     id="g10"
     transform="matrix(1.3333333,0,0,-1.3333333,0,342.88933)"><g
       id="g12"
       transform="translate(5.38,5.38)"><g
         id="g14"><g
           id="g16" /><g
           id="g18" /><g
           id="g20"><g
             id="g22" /><g
             id="g24"><g
               id="g26"
               transform="translate(25.694,232.228)"><g
                 id="g28"><g
                   id="g30"
                   transform="translate(-31.074,-237.608)"><text
                     transform="matrix(1,0,0,-1,31.074,237.608)"
                     style="font-variant:normal;font-weight:normal;font-size:9.9626px;font-family:CMMI10;-inkscape-font-specification:CMMI10;writing-mode:lr-tb;fill:#000000;fill-opacity:1;fill-rule:nonzero;stroke:none"
                     id="text34"><tspan
                       x="0"
                       y="0"
                       id="tspan32">η</tspan></text><g
                     id="g36"
                     transform="translate(31.074,237.608)" /></g></g><g
                 id="g38"
                 transform="translate(-25.694,-232.228)" /></g></g><g
             id="g40" /><g
             id="g42"><g
               id="g44"
               transform="translate(60.212,238.168)"><g
                 id="g46"><g
                   id="g48"
                   transform="translate(-65.592,-243.548)"><text
                     transform="matrix(1,0,0,-1,65.592,243.548)"
                     style="font-variant:normal;font-weight:normal;font-size:9.9626px;font-family:CMMI10;-inkscape-font-specification:CMMI10;writing-mode:lr-tb;fill:#000000;fill-opacity:1;fill-rule:nonzero;stroke:none"
                     id="text52"><tspan
                       x="0"
                       y="0"
                       id="tspan50">η</tspan></text><text
                     transform="matrix(1,0,0,-1,70.897,247.164)"
                     style="font-variant:normal;font-weight:normal;font-size:6.9738px;font-family:CMSY7;-inkscape-font-specification:CMSY7;writing-mode:lr-tb;fill:#000000;fill-opacity:1;fill-rule:nonzero;stroke:none"
                     id="text56"><tspan
                       x="0"
                       y="0"
                       id="tspan54">0</tspan></text><g
                     id="g58"
                     transform="translate(65.592,243.548)" /></g></g><g
                 id="g60"
                 transform="translate(-60.212,-238.168)" /></g></g><g
             id="g62" /><g
             id="g64"><g
               id="g66"
               transform="translate(167.301,230.291)"><g
                 id="g68"><g
                   id="g70"
                   transform="translate(-172.681,-235.671)"><text
                     transform="matrix(1,0,0,-1,172.681,235.671)"
                     style="font-variant:normal;font-weight:normal;font-size:9.9626px;font-family:CMMI10;-inkscape-font-specification:CMMI10;writing-mode:lr-tb;fill:#000000;fill-opacity:1;fill-rule:nonzero;stroke:none"
                     id="text74"><tspan
                       x="0"
                       y="0"
                       id="tspan72">ν</tspan></text><g
                     id="g76"
                     transform="translate(172.681,235.671)" /></g></g><g
                 id="g78"
                 transform="translate(-167.301,-230.291)" /></g></g><g
             id="g80" /><g
             id="g82"><g
               id="g84"
               transform="translate(201.945,237.2)"><g
                 id="g86"><g
                   id="g88"
                   transform="translate(-207.325,-242.58)"><text
                     transform="matrix(1,0,0,-1,207.325,242.58)"
                     style="font-variant:normal;font-weight:normal;font-size:9.9626px;font-family:CMMI10;-inkscape-font-specification:CMMI10;writing-mode:lr-tb;fill:#000000;fill-opacity:1;fill-rule:nonzero;stroke:none"
                     id="text92"><tspan
                       x="0"
                       y="0"
                       id="tspan90">ν</tspan></text><text
                     transform="matrix(1,0,0,-1,212.88,246.195)"
                     style="font-variant:normal;font-weight:normal;font-size:6.9738px;font-family:CMSY7;-inkscape-font-specification:CMSY7;writing-mode:lr-tb;fill:#000000;fill-opacity:1;fill-rule:nonzero;stroke:none"
                     id="text96"><tspan
                       x="0"
                       y="0"
                       id="tspan94">0</tspan></text><g
                     id="g98"
                     transform="translate(207.325,242.58)" /></g></g><g
                 id="g100"
                 transform="translate(-201.945,-237.2)" /></g></g><g
             id="g102" /><g
             id="g104"><g
               id="g106"
               transform="translate(55.443,82.549)"><g
                 id="g108"><g
                   id="g110"
                   transform="translate(-60.823,-87.929)"><text
                     transform="matrix(1,0,0,-1,60.823,87.929)"
                     style="font-variant:normal;font-weight:normal;font-size:9.9626px;font-family:CMMI10;-inkscape-font-specification:CMMI10;writing-mode:lr-tb;fill:#000000;fill-opacity:1;fill-rule:nonzero;stroke:none"
                     id="text114"><tspan
                       x="0"
                       y="0"
                       id="tspan112">ξ</tspan></text><g
                     id="g116"
                     transform="translate(60.823,87.929)" /></g></g><g
                 id="g118"
                 transform="translate(-55.443,-82.549)" /></g></g><g
             id="g120" /><g
             id="g122"><g
               id="g124"
               transform="translate(77.929,87.578)"><g
                 id="g126"><g
                   id="g128"
                   transform="translate(-83.309,-92.958)"><text
                     transform="matrix(1,0,0,-1,83.309,92.958)"
                     style="font-variant:normal;font-weight:normal;font-size:9.9626px;font-family:CMMI10;-inkscape-font-specification:CMMI10;writing-mode:lr-tb;fill:#000000;fill-opacity:1;fill-rule:nonzero;stroke:none"
                     id="text132"><tspan
                       x="0"
                       y="0"
                       id="tspan130">ξ</tspan></text><text
                     transform="matrix(1,0,0,-1,88.126,96.573)"
                     style="font-variant:normal;font-weight:normal;font-size:6.9738px;font-family:CMSY7;-inkscape-font-specification:CMSY7;writing-mode:lr-tb;fill:#000000;fill-opacity:1;fill-rule:nonzero;stroke:none"
                     id="text136"><tspan
                       x="0"
                       y="0"
                       id="tspan134">0</tspan></text><g
                     id="g138"
                     transform="translate(83.309,92.958)" /></g></g><g
                 id="g140"
                 transform="translate(-77.929,-87.578)" /></g></g><g
             id="g142" /><g
             id="g144"><path
               d="m 28.3468,226.77448 c 0,0.83532 0.55693,1.67068 1.67075,2.22756 l 9.71322,4.85645 c 1.11382,0.55688 1.67075,1.39223 1.67073,2.22758 0.66826,-0.50125 1.6707,-0.55693 2.78452,-4e-5 l 9.71323,4.85646 c 1.11381,0.55688 2.11625,0.50119 2.7845,-3e-5"
               style="fill:none;stroke:#000000;stroke-width:0.79701;stroke-linecap:butt;stroke-linejoin:miter;stroke-miterlimit:10;stroke-dasharray:none;stroke-opacity:1"
               id="path146" /><g
               id="g148"><g
                 id="g150"
                 transform="translate(35.716,241.659)"><g
                   id="g152"><g
                     id="g154"
                     transform="translate(-41.096,-247.039)"><text
                       transform="matrix(1,0,0,-1,41.096,247.039)"
                       style="font-variant:normal;font-weight:normal;font-size:9.9626px;font-family:CMR10;-inkscape-font-specification:CMR10;writing-mode:lr-tb;fill:#000000;fill-opacity:1;fill-rule:nonzero;stroke:none"
                       id="text158"><tspan
                         x="0"
                         y="0"
                         id="tspan156">∆</tspan></text><text
                       transform="matrix(1,0,0,-1,49.398,247.039)"
                       style="font-variant:normal;font-weight:normal;font-size:9.9626px;font-family:CMMI10;-inkscape-font-specification:CMMI10;writing-mode:lr-tb;fill:#000000;fill-opacity:1;fill-rule:nonzero;stroke:none"
                       id="text162"><tspan
                         x="0"
                         y="0"
                         id="tspan160">η</tspan></text><g
                       id="g164"
                       transform="translate(41.096,247.039)" /></g></g><g
                   id="g166"
                   transform="translate(-35.716,-241.659)" /></g></g></g><g
             id="g168"><path
               d="m 74.41037,90.35544 c 2e-5,-0.83531 -0.55692,-1.67066 -1.6707,-2.22756 l -0.85945,-0.4297 c -1.11379,-0.55688 -1.67072,-1.39221 -1.67069,-2.22755 -0.66824,0.50123 -1.67067,0.5569 -2.78447,1e-5 l -0.85945,-0.42972 c -1.11378,-0.5569 -2.11622,-0.50119 -2.78445,2e-5"
               style="fill:none;stroke:#000000;stroke-width:0.79701;stroke-linecap:butt;stroke-linejoin:miter;stroke-miterlimit:10;stroke-dasharray:none;stroke-opacity:1"
               id="path170" /><g
               id="g172"><g
                 id="g174"
                 transform="translate(65.192,77.524)"><g
                   id="g176"><g
                     id="g178"
                     transform="translate(-70.572,-82.904)"><text
                       transform="matrix(1,0,0,-1,70.572,82.904)"
                       style="font-variant:normal;font-weight:normal;font-size:9.9626px;font-family:CMR10;-inkscape-font-specification:CMR10;writing-mode:lr-tb;fill:#000000;fill-opacity:1;fill-rule:nonzero;stroke:none"
                       id="text182"><tspan
                         x="0"
                         y="0"
                         id="tspan180">∆</tspan></text><text
                       transform="matrix(1,0,0,-1,78.874,82.904)"
                       style="font-variant:normal;font-weight:normal;font-size:9.9626px;font-family:CMMI10;-inkscape-font-specification:CMMI10;writing-mode:lr-tb;fill:#000000;fill-opacity:1;fill-rule:nonzero;stroke:none"
                       id="text186"><tspan
                         x="0"
                         y="0"
                         id="tspan184">ξ</tspan></text><g
                       id="g188"
                       transform="translate(70.572,82.904)" /></g></g><g
                   id="g190"
                   transform="translate(-65.192,-77.524)" /></g></g></g><g
             id="g192"><path
               d="m 170.08086,226.77448 c 0,0.83532 0.55691,1.67068 1.67073,2.22756 l 9.71324,4.85645 c 1.11381,0.55688 1.67073,1.39223 1.67071,2.22758 0.66828,-0.50125 1.6707,-0.55693 2.78452,-4e-5 l 9.71324,4.85646 c 1.11382,0.55688 2.11624,0.50119 2.7845,-3e-5"
               style="fill:none;stroke:#000000;stroke-width:0.79701;stroke-linecap:butt;stroke-linejoin:miter;stroke-miterlimit:10;stroke-dasharray:none;stroke-opacity:1"
               id="path194" /><g
               id="g196"><g
                 id="g198"
                 transform="translate(177.323,239.722)"><g
                   id="g200"><g
                     id="g202"
                     transform="translate(-182.703,-245.102)"><text
                       transform="matrix(1,0,0,-1,182.703,245.102)"
                       style="font-variant:normal;font-weight:normal;font-size:9.9626px;font-family:CMR10;-inkscape-font-specification:CMR10;writing-mode:lr-tb;fill:#000000;fill-opacity:1;fill-rule:nonzero;stroke:none"
                       id="text206"><tspan
                         x="0"
                         y="0"
                         id="tspan204">∆</tspan></text><text
                       transform="matrix(1,0,0,-1,191.005,245.102)"
                       style="font-variant:normal;font-weight:normal;font-size:9.9626px;font-family:CMMI10;-inkscape-font-specification:CMMI10;writing-mode:lr-tb;fill:#000000;fill-opacity:1;fill-rule:nonzero;stroke:none"
                       id="text210"><tspan
                         x="0"
                         y="0"
                         id="tspan208">ν</tspan></text><g
                       id="g212"
                       transform="translate(182.703,245.102)" /></g></g><g
                   id="g214"
                   transform="translate(-177.323,-239.722)" /></g></g></g><g
             id="g216"><path
               d="M 0,0 63.7803,85.04042"
               style="fill:none;stroke:#0000ff;stroke-width:0.3985;stroke-linecap:butt;stroke-linejoin:miter;stroke-miterlimit:10;stroke-dasharray:none;stroke-opacity:1"
               id="path218" /></g><g
             id="g220"><path
               d="M 63.7803,85.04042 28.3468,226.77448"
               style="fill:none;stroke:#0000ff;stroke-width:0.3985;stroke-linecap:butt;stroke-linejoin:miter;stroke-miterlimit:10;stroke-dasharray:none;stroke-opacity:1"
               id="path222" /></g><g
             id="g224"><path
               d="M 63.7803,85.04042 170.08086,226.77448"
               style="fill:none;stroke:#0000ff;stroke-width:0.3985;stroke-linecap:butt;stroke-linejoin:miter;stroke-miterlimit:10;stroke-dasharray:2.98883, 2.98883;stroke-dashoffset:0;stroke-opacity:1"
               id="path226" /></g><g
             id="g228"><path
               d="M 0,0 198.42766,240.94788"
               style="fill:none;stroke:#bf8040;stroke-width:0.3985;stroke-linecap:butt;stroke-linejoin:miter;stroke-miterlimit:10;stroke-dasharray:2.98883, 2.98883;stroke-dashoffset:0;stroke-opacity:1"
               id="path230" /></g><g
             id="g232"><path
               d="M 0,0 74.41037,90.35544"
               style="fill:none;stroke:#bf8040;stroke-width:0.3985;stroke-linecap:butt;stroke-linejoin:miter;stroke-miterlimit:10;stroke-dasharray:none;stroke-opacity:1"
               id="path234" /></g><g
             id="g236"><path
               d="M 74.41037,90.35544 56.69362,240.94788"
               style="fill:none;stroke:#bf8040;stroke-width:0.3985;stroke-linecap:butt;stroke-linejoin:miter;stroke-miterlimit:10;stroke-dasharray:none;stroke-opacity:1"
               id="path238" /></g><g
             id="g240"><path
               d="M 4.98138,0 C 4.98138,2.75117 2.75117,4.98138 0,4.98138 -2.75117,4.98138 -4.98138,2.75117 -4.98138,0 c 0,-2.75117 2.23021,-4.98138 4.98138,-4.98138 2.75117,0 4.98138,2.23021 4.98138,4.98138 z"
               style="fill:#ffffff;fill-opacity:1;fill-rule:nonzero;stroke:#00ff00;stroke-width:0.79701;stroke-linecap:butt;stroke-linejoin:miter;stroke-miterlimit:10;stroke-dasharray:none;stroke-opacity:1"
               id="path242" /></g><g
             id="g244"><path
               d="m 29.34308,226.77448 c 0,0.55022 -0.44605,0.99627 -0.99628,0.99627 -0.55023,0 -0.99628,-0.44605 -0.99628,-0.99627 0,-0.55024 0.44605,-0.99628 0.99628,-0.99628 0.55023,0 0.99628,0.44604 0.99628,0.99628 z"
               style="fill:#000000;fill-opacity:1;fill-rule:nonzero;stroke:#000000;stroke-width:0.79701;stroke-linecap:butt;stroke-linejoin:miter;stroke-miterlimit:10;stroke-dasharray:none;stroke-opacity:1"
               id="path246" /></g><g
             id="g248"><path
               d="m 171.07713,226.77448 c 0,0.55022 -0.44604,0.99627 -0.99627,0.99627 -0.55025,0 -0.99628,-0.44605 -0.99628,-0.99627 0,-0.55024 0.44603,-0.99628 0.99628,-0.99628 0.55023,0 0.99627,0.44604 0.99627,0.99628 z"
               style="fill:#000000;fill-opacity:1;fill-rule:nonzero;stroke:#000000;stroke-width:0.79701;stroke-linecap:butt;stroke-linejoin:miter;stroke-miterlimit:10;stroke-dasharray:none;stroke-opacity:1"
               id="path250" /></g><g
             id="g252"><path
               d="m 64.77658,85.04042 c 0,0.55023 -0.44604,0.99628 -0.99628,0.99628 -0.55023,0 -0.99627,-0.44605 -0.99627,-0.99628 0,-0.55023 0.44604,-0.99628 0.99627,-0.99628 0.55024,0 0.99628,0.44605 0.99628,0.99628 z"
               style="fill:#000000;fill-opacity:1;fill-rule:nonzero;stroke:#000000;stroke-width:0.79701;stroke-linecap:butt;stroke-linejoin:miter;stroke-miterlimit:10;stroke-dasharray:none;stroke-opacity:1"
               id="path254" /></g><g
             id="g256"><path
               d="m 199.42393,240.94788 c 0,0.55023 -0.44604,0.99627 -0.99627,0.99627 -0.55023,0 -0.99628,-0.44604 -0.99628,-0.99627 0,-0.55025 0.44605,-0.99628 0.99628,-0.99628 0.55023,0 0.99627,0.44603 0.99627,0.99628 z"
               style="fill:#000000;fill-opacity:1;fill-rule:nonzero;stroke:#000000;stroke-width:0.79701;stroke-linecap:butt;stroke-linejoin:miter;stroke-miterlimit:10;stroke-dasharray:none;stroke-opacity:1"
               id="path258" /></g><g
             id="g260"><path
               d="m 57.6899,240.94788 c 0,0.55023 -0.44605,0.99627 -0.99628,0.99627 -0.55025,0 -0.99628,-0.44604 -0.99628,-0.99627 0,-0.55025 0.44603,-0.99628 0.99628,-0.99628 0.55023,0 0.99628,0.44603 0.99628,0.99628 z"
               style="fill:#000000;fill-opacity:1;fill-rule:nonzero;stroke:#000000;stroke-width:0.79701;stroke-linecap:butt;stroke-linejoin:miter;stroke-miterlimit:10;stroke-dasharray:none;stroke-opacity:1"
               id="path262" /></g><g
             id="g264"><path
               d="m 75.40665,90.35544 c 0,0.55025 -0.44605,0.99628 -0.99628,0.99628 -0.55025,0 -0.99627,-0.44603 -0.99627,-0.99628 0,-0.55024 0.44602,-0.99628 0.99627,-0.99628 0.55023,0 0.99628,0.44604 0.99628,0.99628 z"
               style="fill:#000000;fill-opacity:1;fill-rule:nonzero;stroke:#000000;stroke-width:0.79701;stroke-linecap:butt;stroke-linejoin:miter;stroke-miterlimit:10;stroke-dasharray:none;stroke-opacity:1"
               id="path266" /></g></g></g></g></g></svg>
