<?xml version="1.0" encoding="UTF-8" standalone="no"?>
<!-- Created with Inkscape (http://www.inkscape.org/) -->

<svg
   version="1.1"
   id="svg2"
   xml:space="preserve"
   width="340.68799"
   height="340.68799"
   viewBox="0 0 340.68799 340.68799"
   xmlns="http://www.w3.org/2000/svg"
   xmlns:svg="http://www.w3.org/2000/svg"><defs
     id="defs6" /><g
     id="g8"
     transform="matrix(1.3333333,0,0,-1.3333333,0,340.688)"><g
       id="g10"
       transform="translate(255.317,0.199)"><g
         id="g12"><g
           id="g14" /><g
           id="g16" /><g
           id="g18"><g
             id="g20" /><g
             id="g22"><g
               id="g24"
               transform="translate(-24.826,27.171)"><g
                 id="g26"><g
                   id="g28"
                   transform="translate(-230.491,-27.37)"><text
                     transform="matrix(1,0,0,-1,230.491,27.37)"
                     style="font-variant:normal;font-weight:normal;font-size:9.9626px;font-family:CMMI10;-inkscape-font-specification:CMMI10;writing-mode:lr-tb;fill:#000000;fill-opacity:1;fill-rule:nonzero;stroke:none"
                     id="text32"><tspan
                       x="0"
                       y="0"
                       id="tspan30">η</tspan></text><g
                     id="g34"
                     transform="translate(230.491,27.37)" /></g></g><g
                 id="g36"
                 transform="translate(24.826,-27.171)" /></g></g><g
             id="g38" /><g
             id="g40"><g
               id="g42"
               transform="translate(-89.089,90.497)"><g
                 id="g44"><g
                   id="g46"
                   transform="translate(-166.228,-90.696)"><text
                     transform="matrix(1,0,0,-1,166.228,90.696)"
                     style="font-variant:normal;font-weight:normal;font-size:9.9626px;font-family:CMMI10;-inkscape-font-specification:CMMI10;writing-mode:lr-tb;fill:#000000;fill-opacity:1;fill-rule:nonzero;stroke:none"
                     id="text50"><tspan
                       x="0"
                       y="0"
                       id="tspan48">η</tspan></text><text
                     transform="matrix(1,0,0,-1,171.532,94.311)"
                     style="font-variant:normal;font-weight:normal;font-size:6.9738px;font-family:CMSY7;-inkscape-font-specification:CMSY7;writing-mode:lr-tb;fill:#000000;fill-opacity:1;fill-rule:nonzero;stroke:none"
                     id="text54"><tspan
                       x="0"
                       y="0"
                       id="tspan52">′</tspan></text><g
                     id="g56"
                     transform="translate(166.228,90.696)" /></g></g><g
                 id="g58"
                 transform="translate(89.089,-90.497)" /></g></g><g
             id="g60" /><g
             id="g62"><g
               id="g64"
               transform="translate(-172.487,175.536)"><g
                 id="g66"><g
                   id="g68"
                   transform="translate(-82.83,-175.735)"><text
                     transform="matrix(1,0,0,-1,82.83,175.735)"
                     style="font-variant:normal;font-weight:normal;font-size:9.9626px;font-family:CMMI10;-inkscape-font-specification:CMMI10;writing-mode:lr-tb;fill:#000000;fill-opacity:1;fill-rule:nonzero;stroke:none"
                     id="text72"><tspan
                       x="0"
                       y="0"
                       id="tspan70">ξ</tspan></text><g
                     id="g74"
                     transform="translate(82.83,175.735)" /></g></g><g
                 id="g76"
                 transform="translate(172.487,-175.536)" /></g></g><g
             id="g78" /><g
             id="g80"><g
               id="g82"
               transform="translate(-223.491,225.142)"><g
                 id="g84"><g
                   id="g86"
                   transform="translate(-31.826,-225.341)"><text
                     transform="matrix(1,0,0,-1,31.826,225.341)"
                     style="font-variant:normal;font-weight:normal;font-size:9.9626px;font-family:CMMI10;-inkscape-font-specification:CMMI10;writing-mode:lr-tb;fill:#000000;fill-opacity:1;fill-rule:nonzero;stroke:none"
                     id="text90"><tspan
                       x="0"
                       y="0"
                       id="tspan88">ξ</tspan></text><text
                     transform="matrix(1,0,0,-1,36.643,228.957)"
                     style="font-variant:normal;font-weight:normal;font-size:6.9738px;font-family:CMSY7;-inkscape-font-specification:CMSY7;writing-mode:lr-tb;fill:#000000;fill-opacity:1;fill-rule:nonzero;stroke:none"
                     id="text94"><tspan
                       x="0"
                       y="0"
                       id="tspan92">′</tspan></text><g
                     id="g96"
                     transform="translate(31.826,225.341)" /></g></g><g
                 id="g98"
                 transform="translate(223.491,-225.142)" /></g></g><g
             id="g100"><path
               d="m -28.3468,28.3468 c 0.6825,2.04733 0,4.54971 -2.27486,6.82457 L -49.8113,54.36101 c -2.27485,2.27485 -2.95736,4.77722 -2.27485,6.82455 -2.04735,-0.68249 -4.54971,0 -6.82457,2.27486 l -19.18964,19.18965 c -2.27485,2.27484 -4.77724,2.95733 -6.82455,2.27484"
               style="fill:none;stroke:#000000;stroke-width:0.79701;stroke-linecap:butt;stroke-linejoin:miter;stroke-miterlimit:10;stroke-dasharray:none;stroke-opacity:1"
               id="path102" /><g
               id="g104"><g
                 id="g106"
                 transform="translate(-53.533,62.349)"><g
                   id="g108"><g
                     id="g110"
                     transform="translate(-201.784,-62.548)"><text
                       transform="matrix(1,0,0,-1,201.784,62.548)"
                       style="font-variant:normal;font-weight:normal;font-size:9.9626px;font-family:CMR10;-inkscape-font-specification:CMR10;writing-mode:lr-tb;fill:#000000;fill-opacity:1;fill-rule:nonzero;stroke:none"
                       id="text114"><tspan
                         x="0"
                         y="0"
                         id="tspan112">∆</tspan></text><text
                       transform="matrix(1,0,0,-1,210.086,62.548)"
                       style="font-variant:normal;font-weight:normal;font-size:9.9626px;font-family:CMMI10;-inkscape-font-specification:CMMI10;writing-mode:lr-tb;fill:#000000;fill-opacity:1;fill-rule:nonzero;stroke:none"
                       id="text118"><tspan
                         x="0"
                         y="0"
                         id="tspan116">η</tspan></text><g
                       id="g120"
                       transform="translate(201.784,62.548)" /></g></g><g
                   id="g122"
                   transform="translate(53.533,-62.349)" /></g></g></g><g
             id="g124"><path
               d="m -85.04042,85.04042 c -2.04733,-0.68249 -4.54971,0 -6.82457,2.27486 l -58.22481,58.2248 c -2.27485,2.27486 -4.77722,2.95737 -6.82455,2.27486 0.68251,2.04733 0,4.54971 -2.27486,6.82456 l -58.22482,58.22483 c -2.27486,2.27485 -2.95735,4.77724 -2.27486,6.82456"
               style="fill:none;stroke:#000000;stroke-width:0.79701;stroke-linecap:butt;stroke-linejoin:miter;stroke-miterlimit:10;stroke-dasharray:none;stroke-opacity:1"
               id="path126" /><g
               id="g128"><g
                 id="g130"
                 transform="translate(-162.541,139.009)"><g
                   id="g132"><g
                     id="g134"
                     transform="translate(-92.776,-139.208)"><text
                       transform="matrix(1,0,0,-1,92.776,139.208)"
                       style="font-variant:normal;font-weight:normal;font-size:9.9626px;font-family:CMMI10;-inkscape-font-specification:CMMI10;writing-mode:lr-tb;fill:#000000;fill-opacity:1;fill-rule:nonzero;stroke:none"
                       id="text138"><tspan
                         x="0"
                         y="0"
                         id="tspan136">η</tspan></text><text
                       transform="matrix(1,0,0,-1,98.08,142.823)"
                       style="font-variant:normal;font-weight:normal;font-size:6.9738px;font-family:CMSY7;-inkscape-font-specification:CMSY7;writing-mode:lr-tb;fill:#000000;fill-opacity:1;fill-rule:nonzero;stroke:none"
                       id="text142"><tspan
                         x="0 2.2971697"
                         y="0"
                         id="tspan140">′′</tspan></text><g
                       id="g144"
                       transform="translate(92.776,139.208)" /></g></g><g
                   id="g146"
                   transform="translate(162.541,-139.009)" /></g></g></g><g
             id="g148"><path
               d="M 0,0 -255.12128,255.12128"
               style="fill:none;stroke:#000000;stroke-width:0.3985;stroke-linecap:butt;stroke-linejoin:miter;stroke-miterlimit:10;stroke-dasharray:none;stroke-opacity:1"
               id="path150" /></g><g
             id="g152"><path
               d="m -27.35052,28.3468 c 0,0.55023 -0.44605,0.99628 -0.99628,0.99628 -0.55023,0 -0.99628,-0.44605 -0.99628,-0.99628 0,-0.55023 0.44605,-0.99628 0.99628,-0.99628 0.55023,0 0.99628,0.44605 0.99628,0.99628 z"
               style="fill:#000000;fill-opacity:1;fill-rule:nonzero;stroke:#000000;stroke-width:0.79701;stroke-linecap:butt;stroke-linejoin:miter;stroke-miterlimit:10;stroke-dasharray:none;stroke-opacity:1"
               id="path154" /></g><g
             id="g156"><path
               d="m -169.08458,170.08086 c 0,0.55023 -0.44603,0.99627 -0.99628,0.99627 -0.55023,0 -0.99627,-0.44604 -0.99627,-0.99627 0,-0.55025 0.44604,-0.99628 0.99627,-0.99628 0.55025,0 0.99628,0.44603 0.99628,0.99628 z"
               style="fill:#000000;fill-opacity:1;fill-rule:nonzero;stroke:#000000;stroke-width:0.79701;stroke-linecap:butt;stroke-linejoin:miter;stroke-miterlimit:10;stroke-dasharray:none;stroke-opacity:1"
               id="path158" /></g><g
             id="g160"><path
               d="m -84.04414,85.04042 c 0,0.55023 -0.44605,0.99628 -0.99628,0.99628 -0.55023,0 -0.99628,-0.44605 -0.99628,-0.99628 0,-0.55023 0.44605,-0.99628 0.99628,-0.99628 0.55023,0 0.99628,0.44605 0.99628,0.99628 z"
               style="fill:#000000;fill-opacity:1;fill-rule:nonzero;stroke:#000000;stroke-width:0.79701;stroke-linecap:butt;stroke-linejoin:miter;stroke-miterlimit:10;stroke-dasharray:none;stroke-opacity:1"
               id="path162" /></g><g
             id="g164"><path
               d="m -218.69148,219.68776 c 0,0.55024 -0.44605,0.99628 -0.99628,0.99628 -0.55024,0 -0.99628,-0.44604 -0.99628,-0.99628 0,-0.55023 0.44604,-0.99628 0.99628,-0.99628 0.55023,0 0.99628,0.44605 0.99628,0.99628 z"
               style="fill:#000000;fill-opacity:1;fill-rule:nonzero;stroke:#000000;stroke-width:0.79701;stroke-linecap:butt;stroke-linejoin:miter;stroke-miterlimit:10;stroke-dasharray:none;stroke-opacity:1"
               id="path166" /></g></g></g></g></g></svg>
