<?xml version="1.0" encoding="UTF-8" standalone="no"?>
<svg
   xmlns:dc="http://purl.org/dc/elements/1.1/"
   xmlns:cc="http://creativecommons.org/ns#"
   xmlns:rdf="http://www.w3.org/1999/02/22-rdf-syntax-ns#"
   xmlns:svg="http://www.w3.org/2000/svg"
   xmlns="http://www.w3.org/2000/svg"
   version="1.1"
   id="svg2"
   xml:space="preserve"
   width="302.89334"
   height="302.89334"
   viewBox="0 0 302.89334 302.89334"><metadata
     id="metadata8"><rdf:RDF><cc:Work
         rdf:about=""><dc:format>image/svg+xml</dc:format><dc:type
           rdf:resource="http://purl.org/dc/dcmitype/StillImage" /></cc:Work></rdf:RDF></metadata><defs
     id="defs6" /><g
     id="g10"
     transform="matrix(1.3333333,0,0,-1.3333333,0,302.89333)"><g
       id="g12"
       transform="translate(-28.147,-28.147)"><g
         id="g14"><g
           id="g16" /><g
           id="g18" /><g
           id="g20"><g
             id="g22" /><g
             id="g24"><g
               id="g26"
               transform="translate(60.212,54.202)"><g
                 id="g28"><g
                   id="g30"
                   transform="translate(-32.065,-26.055)"><text
                     transform="matrix(1,0,0,-1,32.065,26.055)"
                     style="font-variant:normal;font-weight:normal;font-size:9.9626px;font-family:CMMI10;-inkscape-font-specification:CMMI10;writing-mode:lr-tb;fill:#000000;fill-opacity:1;fill-rule:nonzero;stroke:none"
                     id="text34"><tspan
                       x="0"
                       y="0"
                       id="tspan32">ξ</tspan></text><g
                     id="g36"
                     transform="translate(32.065,26.055)" /></g></g><g
                 id="g38"
                 transform="translate(-60.212,-54.202)" /></g></g><g
             id="g40" /><g
             id="g42"><g
               id="g44"
               transform="translate(81.233,90.496)"><g
                 id="g46"><g
                   id="g48"
                   transform="translate(-53.086,-62.349)"><text
                     transform="matrix(1,0,0,-1,53.086,62.349)"
                     style="font-variant:normal;font-weight:normal;font-size:9.9626px;font-family:CMMI10;-inkscape-font-specification:CMMI10;writing-mode:lr-tb;fill:#000000;fill-opacity:1;fill-rule:nonzero;stroke:none"
                     id="text52"><tspan
                       x="0"
                       y="0"
                       id="tspan50">ξ</tspan></text><text
                     transform="matrix(1,0,0,-1,57.903,65.964)"
                     style="font-variant:normal;font-weight:normal;font-size:6.9738px;font-family:CMSY7;-inkscape-font-specification:CMSY7;writing-mode:lr-tb;fill:#000000;fill-opacity:1;fill-rule:nonzero;stroke:none"
                     id="text56"><tspan
                       x="0"
                       y="0"
                       id="tspan54">0</tspan></text><g
                     id="g58"
                     transform="translate(53.086,62.349)" /></g></g><g
                 id="g60"
                 transform="translate(-81.233,-90.496)" /></g></g><g
             id="g62" /><g
             id="g64"><g
               id="g66"
               transform="translate(161.255,168.902)"><g
                 id="g68"><g
                   id="g70"
                   transform="translate(-133.108,-140.755)"><text
                     transform="matrix(1,0,0,-1,133.108,140.755)"
                     style="font-variant:normal;font-weight:normal;font-size:9.9626px;font-family:CMMI10;-inkscape-font-specification:CMMI10;writing-mode:lr-tb;fill:#000000;fill-opacity:1;fill-rule:nonzero;stroke:none"
                     id="text74"><tspan
                       x="0"
                       y="0"
                       id="tspan72">η</tspan></text><g
                     id="g76"
                     transform="translate(133.108,140.755)" /></g></g><g
                 id="g78"
                 transform="translate(-161.255,-168.902)" /></g></g><g
             id="g80" /><g
             id="g82"><g
               id="g84"
               transform="translate(215.635,225.142)"><g
                 id="g86"><g
                   id="g88"
                   transform="translate(-187.488,-196.995)"><text
                     transform="matrix(1,0,0,-1,187.488,196.995)"
                     style="font-variant:normal;font-weight:normal;font-size:9.9626px;font-family:CMMI10;-inkscape-font-specification:CMMI10;writing-mode:lr-tb;fill:#000000;fill-opacity:1;fill-rule:nonzero;stroke:none"
                     id="text92"><tspan
                       x="0"
                       y="0"
                       id="tspan90">η</tspan></text><text
                     transform="matrix(1,0,0,-1,192.792,200.61)"
                     style="font-variant:normal;font-weight:normal;font-size:6.9738px;font-family:CMSY7;-inkscape-font-specification:CMSY7;writing-mode:lr-tb;fill:#000000;fill-opacity:1;fill-rule:nonzero;stroke:none"
                     id="text96"><tspan
                       x="0"
                       y="0"
                       id="tspan94">0</tspan></text><g
                     id="g98"
                     transform="translate(187.488,196.995)" /></g></g><g
                 id="g100"
                 transform="translate(-215.635,-225.142)" /></g></g><g
             id="g102"><path
               d="m 170.08086,170.08086 c -0.6825,2.04731 0,4.54969 2.27485,6.82455 l 15.64546,15.64548 c 2.27486,2.27484 2.95736,4.77722 2.27486,6.82455 2.04733,-0.68251 4.5497,0 6.82456,2.27486 l 15.64549,15.64549 c 2.27486,2.27486 4.77724,2.95735 6.82457,2.27486"
               style="fill:none;stroke:#000000;stroke-width:0.79701;stroke-linecap:butt;stroke-linejoin:miter;stroke-miterlimit:10;stroke-dasharray:none;stroke-opacity:1"
               id="path104" /><g
               id="g106"><g
                 id="g108"
                 transform="translate(177.556,200.538)"><g
                   id="g110"><g
                     id="g112"
                     transform="translate(-149.409,-172.391)"><text
                       transform="matrix(1,0,0,-1,149.409,172.391)"
                       style="font-variant:normal;font-weight:normal;font-size:9.9626px;font-family:CMR10;-inkscape-font-specification:CMR10;writing-mode:lr-tb;fill:#000000;fill-opacity:1;fill-rule:nonzero;stroke:none"
                       id="text116"><tspan
                         x="0"
                         y="0"
                         id="tspan114">∆</tspan></text><text
                       transform="matrix(1,0,0,-1,157.711,172.391)"
                       style="font-variant:normal;font-weight:normal;font-size:9.9626px;font-family:CMMI10;-inkscape-font-specification:CMMI10;writing-mode:lr-tb;fill:#000000;fill-opacity:1;fill-rule:nonzero;stroke:none"
                       id="text120"><tspan
                         x="0"
                         y="0"
                         id="tspan118">η</tspan></text><g
                       id="g122"
                       transform="translate(149.409,172.391)" /></g></g><g
                   id="g124"
                   transform="translate(-177.556,-200.538)" /></g></g></g><g
             id="g126"><path
               d="m 219.68776,219.68776 c 0.68249,-2.04732 0,-4.5497 -2.27484,-6.82456 L 159.1881,154.6384 c -2.27485,-2.27486 -2.95736,-4.77722 -2.27485,-6.82457 -2.04735,0.68251 -4.54971,0 -6.82457,-2.27486 L 91.86386,87.31415 C 89.589,85.03929 87.08662,84.35681 85.03929,85.03929"
               style="fill:none;stroke:#000000;stroke-width:0.79701;stroke-linecap:butt;stroke-linejoin:miter;stroke-miterlimit:10;stroke-dasharray:none;stroke-opacity:1"
               id="path128" /><g
               id="g130"><g
                 id="g132"
                 transform="translate(156.081,141.153)"><g
                   id="g134"><g
                     id="g136"
                     transform="translate(-127.934,-113.006)"><text
                       transform="matrix(1,0,0,-1,127.934,113.006)"
                       style="font-variant:normal;font-weight:normal;font-size:9.9626px;font-family:CMMI10;-inkscape-font-specification:CMMI10;writing-mode:lr-tb;fill:#000000;fill-opacity:1;fill-rule:nonzero;stroke:none"
                       id="text140"><tspan
                         x="0"
                         y="0"
                         id="tspan138">η</tspan></text><text
                       transform="matrix(1,0,0,-1,133.238,116.622)"
                       style="font-variant:normal;font-weight:normal;font-size:6.9738px;font-family:CMSY7;-inkscape-font-specification:CMSY7;writing-mode:lr-tb;fill:#000000;fill-opacity:1;fill-rule:nonzero;stroke:none"
                       id="text144"><tspan
                         x="0 2.2971697"
                         y="0"
                         id="tspan142">00</tspan></text><g
                       id="g146"
                       transform="translate(127.934,113.006)" /></g></g><g
                   id="g148"
                   transform="translate(-156.081,-141.153)" /></g></g></g><g
             id="g150"><path
               d="M 28.3468,28.3468 255.12128,255.12128"
               style="fill:none;stroke:#000000;stroke-width:0.3985;stroke-linecap:butt;stroke-linejoin:miter;stroke-miterlimit:10;stroke-dasharray:none;stroke-opacity:1"
               id="path152" /></g><g
             id="g154"><path
               d="m 171.07713,170.08086 c 0,0.55023 -0.44604,0.99627 -0.99627,0.99627 -0.55025,0 -0.99628,-0.44604 -0.99628,-0.99627 0,-0.55025 0.44603,-0.99628 0.99628,-0.99628 0.55023,0 0.99627,0.44603 0.99627,0.99628 z"
               style="fill:#000000;fill-opacity:1;fill-rule:nonzero;stroke:#000000;stroke-width:0.79701;stroke-linecap:butt;stroke-linejoin:miter;stroke-miterlimit:10;stroke-dasharray:none;stroke-opacity:1"
               id="path156" /></g><g
             id="g158"><path
               d="m 57.6899,56.69362 c 0,0.55023 -0.44605,0.99628 -0.99628,0.99628 -0.55025,0 -0.99628,-0.44605 -0.99628,-0.99628 0,-0.55025 0.44603,-0.99628 0.99628,-0.99628 0.55023,0 0.99628,0.44603 0.99628,0.99628 z"
               style="fill:#000000;fill-opacity:1;fill-rule:nonzero;stroke:#000000;stroke-width:0.79701;stroke-linecap:butt;stroke-linejoin:miter;stroke-miterlimit:10;stroke-dasharray:none;stroke-opacity:1"
               id="path160" /></g><g
             id="g162"><path
               d="m 220.68404,219.68776 c 0,0.55024 -0.44604,0.99628 -0.99628,0.99628 -0.55023,0 -0.99628,-0.44604 -0.99628,-0.99628 0,-0.55023 0.44605,-0.99628 0.99628,-0.99628 0.55024,0 0.99628,0.44605 0.99628,0.99628 z"
               style="fill:#000000;fill-opacity:1;fill-rule:nonzero;stroke:#000000;stroke-width:0.79701;stroke-linecap:butt;stroke-linejoin:miter;stroke-miterlimit:10;stroke-dasharray:none;stroke-opacity:1"
               id="path164" /></g><g
             id="g166"><path
               d="m 86.0367,85.04042 c 0,0.55023 -0.44605,0.99628 -0.99628,0.99628 -0.55023,0 -0.99628,-0.44605 -0.99628,-0.99628 0,-0.55023 0.44605,-0.99628 0.99628,-0.99628 0.55023,0 0.99628,0.44605 0.99628,0.99628 z"
               style="fill:#000000;fill-opacity:1;fill-rule:nonzero;stroke:#000000;stroke-width:0.79701;stroke-linecap:butt;stroke-linejoin:miter;stroke-miterlimit:10;stroke-dasharray:none;stroke-opacity:1"
               id="path168" /></g></g></g></g></g></svg>
